G04*
G04 #@! TF.GenerationSoftware,Altium Limited,Altium Designer,18.0.7 (293)*
G04*
G04 Layer_Color=65535*
%FSLAX25Y25*%
%MOIN*%
G70*
G01*
G75*
%ADD10C,0.00600*%
%ADD11C,0.01181*%
%ADD12C,0.00787*%
%ADD13C,0.00394*%
%ADD14C,0.01000*%
%ADD15R,0.04331X0.31496*%
%ADD16R,0.04724X0.33661*%
D10*
X23545Y57874D02*
G03*
X23545Y57874I-300J0D01*
G01*
X25296Y42225D02*
X43996D01*
Y43266D01*
X25296Y60925D02*
X43996D01*
X25296Y59884D02*
Y60925D01*
Y42225D02*
Y43266D01*
X43996Y59884D02*
Y60925D01*
D11*
X23819Y102500D02*
G03*
X23819Y102500I-394J0D01*
G01*
X51575Y34252D02*
G03*
X51575Y34252I-394J0D01*
G01*
X89370Y55709D02*
G03*
X89370Y55709I-394J0D01*
G01*
D12*
X6614Y168760D02*
X119016D01*
X6614Y130669D02*
Y168760D01*
X119016Y130669D02*
Y168760D01*
X6614Y130669D02*
X119016D01*
X20669Y100138D02*
Y121791D01*
X106496D01*
Y100138D02*
Y121791D01*
X20669Y100138D02*
X106496D01*
X62500Y45866D02*
Y51378D01*
X54626Y45866D02*
X62500D01*
X54626D02*
Y51378D01*
X62500D01*
X17717Y39862D02*
X23228D01*
X17717D02*
Y47736D01*
X23228D01*
Y39862D02*
Y47736D01*
X72047Y54134D02*
X77559D01*
Y46260D02*
Y54134D01*
X72047Y46260D02*
X77559D01*
X72047D02*
Y54134D01*
X89075Y42520D02*
Y48031D01*
X96949D01*
Y42520D02*
Y48031D01*
X89075Y42520D02*
X96949D01*
X34252Y62205D02*
Y93701D01*
Y62205D02*
X83858D01*
Y93701D01*
X34252D02*
X83858D01*
X70473Y46161D02*
Y54035D01*
X64961D02*
X70473D01*
X64961Y46161D02*
Y54035D01*
Y46161D02*
X70473D01*
X11024Y39862D02*
Y47736D01*
Y39862D02*
X16535D01*
Y47736D01*
X11024D02*
X16535D01*
X112205Y13780D02*
Y33465D01*
X105315Y6890D02*
X112205Y13780D01*
X64961Y6890D02*
X105315D01*
X105315Y40354D02*
X112205Y33465D01*
X64961Y40354D02*
X105315D01*
X64961Y6890D02*
Y40354D01*
X53150Y46161D02*
Y54035D01*
X47638D02*
X53150D01*
X47638Y46161D02*
Y54035D01*
Y46161D02*
X53150D01*
X100394Y41732D02*
X114567D01*
X100394D02*
Y50394D01*
X114567D01*
Y41732D02*
Y50394D01*
X9449Y36614D02*
X54331D01*
X9449Y7087D02*
Y36614D01*
X54331Y7087D02*
Y36614D01*
X9449Y7087D02*
X54331D01*
X17323Y87008D02*
X31496D01*
X17323D02*
Y95669D01*
X31496D01*
Y87008D02*
Y95669D01*
X17323Y76378D02*
X31496D01*
X17323D02*
Y85039D01*
X31496D01*
Y76378D02*
Y85039D01*
X17323Y65748D02*
X31496D01*
X17323D02*
Y74410D01*
X31496D01*
Y65748D02*
Y74410D01*
X86024Y52559D02*
Y93209D01*
X86122Y93307D01*
X115551D01*
X86024Y52559D02*
X115551D01*
Y93307D01*
D13*
X11811Y124803D02*
X12861D01*
X12336D01*
Y127952D01*
X11811Y127427D01*
X13385Y170866D02*
Y174015D01*
X11811Y172440D01*
X13910D01*
X113123Y125591D02*
X111024D01*
X113123Y127690D01*
Y128214D01*
X112598Y128739D01*
X111548D01*
X111024Y128214D01*
X114172Y126115D02*
X114697Y125591D01*
X115746D01*
X116271Y126115D01*
Y128214D01*
X115746Y128739D01*
X114697D01*
X114172Y128214D01*
Y127690D01*
X114697Y127165D01*
X116271D01*
X111221Y173884D02*
X111745Y174408D01*
X112795D01*
X113320Y173884D01*
Y173359D01*
X112795Y172834D01*
X112270D01*
X112795D01*
X113320Y172309D01*
Y171785D01*
X112795Y171260D01*
X111745D01*
X111221Y171785D01*
X116468Y171260D02*
X114369D01*
X116468Y173359D01*
Y173884D01*
X115943Y174408D01*
X114894D01*
X114369Y173884D01*
D14*
X10827Y64069D02*
Y59071D01*
X11826Y58071D01*
X13826D01*
X14826Y59071D01*
Y64069D01*
X16825Y58071D02*
X18824D01*
X17824D01*
Y64069D01*
X16825Y63069D01*
X55512Y53543D02*
Y57479D01*
X57480D01*
X58136Y56823D01*
Y55511D01*
X57480Y54855D01*
X55512D01*
X56824D02*
X58136Y53543D01*
X61415D02*
Y57479D01*
X59448Y55511D01*
X62071D01*
X15748Y50197D02*
Y54133D01*
X17716D01*
X18372Y53477D01*
Y52165D01*
X17716Y51509D01*
X15748D01*
X17060D02*
X18372Y50197D01*
X19684Y53477D02*
X20340Y54133D01*
X21652D01*
X22308Y53477D01*
Y52821D01*
X21652Y52165D01*
X20996D01*
X21652D01*
X22308Y51509D01*
Y50853D01*
X21652Y50197D01*
X20340D01*
X19684Y50853D01*
X73425Y56201D02*
Y60136D01*
X75393D01*
X76049Y59481D01*
Y58169D01*
X75393Y57513D01*
X73425D01*
X74737D02*
X76049Y56201D01*
X79985D02*
X77361D01*
X79985Y58825D01*
Y59481D01*
X79329Y60136D01*
X78017D01*
X77361Y59481D01*
X81102Y44488D02*
Y48424D01*
X83070D01*
X83726Y47768D01*
Y46456D01*
X83070Y45800D01*
X81102D01*
X82414D02*
X83726Y44488D01*
X85038D02*
X86350D01*
X85694D01*
Y48424D01*
X85038Y47768D01*
X109449Y99211D02*
Y95276D01*
X112073D01*
X113385D02*
X114697D01*
X114041D01*
Y99211D01*
X113385Y98555D01*
X56010Y11873D02*
Y9873D01*
Y10873D01*
X61008D01*
X62008Y9873D01*
Y8874D01*
X61008Y7874D01*
X57010Y13872D02*
X56010Y14872D01*
Y16871D01*
X57010Y17871D01*
X58009D01*
X59009Y16871D01*
Y15871D01*
Y16871D01*
X60009Y17871D01*
X61008D01*
X62008Y16871D01*
Y14872D01*
X61008Y13872D01*
X13743Y116431D02*
X11743D01*
X12743D01*
Y111433D01*
X11743Y110433D01*
X10744D01*
X9744Y111433D01*
X15742Y110433D02*
X17741D01*
X16742D01*
Y116431D01*
X15742Y115431D01*
X37795Y90944D02*
Y87008D01*
X39763D01*
X40419Y87664D01*
Y90288D01*
X39763Y90944D01*
X37795D01*
X41731Y87008D02*
X43043D01*
X42387D01*
Y90944D01*
X41731Y90288D01*
X67585Y59382D02*
X66928Y60038D01*
X65617D01*
X64961Y59382D01*
Y56758D01*
X65617Y56102D01*
X66928D01*
X67585Y56758D01*
X68896D02*
X69552Y56102D01*
X70864D01*
X71520Y56758D01*
Y59382D01*
X70864Y60038D01*
X69552D01*
X68896Y59382D01*
Y58726D01*
X69552Y58070D01*
X71520D01*
X49868Y42650D02*
X49212Y43306D01*
X47900D01*
X47244Y42650D01*
Y40026D01*
X47900Y39370D01*
X49212D01*
X49868Y40026D01*
X51180Y42650D02*
X51836Y43306D01*
X53148D01*
X53804Y42650D01*
Y41994D01*
X53148Y41338D01*
X53804Y40682D01*
Y40026D01*
X53148Y39370D01*
X51836D01*
X51180Y40026D01*
Y40682D01*
X51836Y41338D01*
X51180Y41994D01*
Y42650D01*
X51836Y41338D02*
X53148D01*
X9514Y53477D02*
X8858Y54133D01*
X7546D01*
X6890Y53477D01*
Y50853D01*
X7546Y50197D01*
X8858D01*
X9514Y50853D01*
X10825Y54133D02*
X13449D01*
Y53477D01*
X10825Y50853D01*
Y50197D01*
X11285Y93437D02*
X10629Y94093D01*
X9317D01*
X8661Y93437D01*
Y90813D01*
X9317Y90158D01*
X10629D01*
X11285Y90813D01*
X15221Y94093D02*
X13909Y93437D01*
X12597Y92125D01*
Y90813D01*
X13253Y90158D01*
X14565D01*
X15221Y90813D01*
Y91469D01*
X14565Y92125D01*
X12597D01*
X10892Y82709D02*
X10236Y83365D01*
X8924D01*
X8268Y82709D01*
Y80085D01*
X8924Y79429D01*
X10236D01*
X10892Y80085D01*
X14827Y83365D02*
X12203D01*
Y81397D01*
X13515Y82053D01*
X14171D01*
X14827Y81397D01*
Y80085D01*
X14171Y79429D01*
X12859D01*
X12203Y80085D01*
X11777Y70012D02*
X11121Y70668D01*
X9809D01*
X9154Y70012D01*
Y67388D01*
X9809Y66732D01*
X11121D01*
X11777Y67388D01*
X15057Y66732D02*
Y70668D01*
X13089Y68700D01*
X15713D01*
X114435Y39107D02*
X113779Y39762D01*
X112467D01*
X111811Y39107D01*
Y36483D01*
X112467Y35827D01*
X113779D01*
X114435Y36483D01*
X115747Y39107D02*
X116403Y39762D01*
X117715D01*
X118371Y39107D01*
Y38451D01*
X117715Y37795D01*
X117059D01*
X117715D01*
X118371Y37139D01*
Y36483D01*
X117715Y35827D01*
X116403D01*
X115747Y36483D01*
X62335Y32809D02*
X62991Y33465D01*
Y34777D01*
X62335Y35433D01*
X59711D01*
X59055Y34777D01*
Y33465D01*
X59711Y32809D01*
X59055Y28874D02*
Y31497D01*
X61679Y28874D01*
X62335D01*
X62991Y29530D01*
Y30841D01*
X62335Y31497D01*
D15*
X81693Y77953D02*
D03*
D16*
X67323Y23720D02*
D03*
M02*
