G04*
G04 #@! TF.GenerationSoftware,Altium Limited,Altium Designer,18.0.7 (293)*
G04*
G04 Layer_Physical_Order=1*
G04 Layer_Color=255*
%FSLAX25Y25*%
%MOIN*%
G70*
G01*
G75*
%ADD11C,0.01181*%
%ADD17R,0.02756X0.02756*%
%ADD18R,0.00866X0.02047*%
%ADD19R,0.04724X0.02756*%
%ADD20R,0.03937X0.02756*%
%ADD21R,0.01968X0.02362*%
%ADD22R,0.02362X0.01968*%
%ADD23R,0.09843X0.12992*%
%ADD24R,0.11614X0.06299*%
%ADD25R,0.02756X0.05118*%
%ADD26R,0.02362X0.06693*%
%ADD27R,0.03937X0.11024*%
%ADD28R,0.14173X0.11811*%
%ADD32R,0.10200X0.11800*%
%ADD46R,0.03300X0.01400*%
%ADD47C,0.02362*%
%ADD48C,0.03150*%
%ADD49C,0.01575*%
%ADD50C,0.01500*%
%ADD51C,0.03937*%
%ADD52C,0.05906*%
%ADD53C,0.02362*%
G36*
X123031Y2953D02*
X2953D01*
Y174213D01*
X123031D01*
Y2953D01*
D02*
G37*
%LPC*%
G36*
X104803Y165976D02*
X103868Y165853D01*
X102996Y165492D01*
X102248Y164917D01*
X102012Y164610D01*
X99090D01*
X98854Y164917D01*
X98106Y165492D01*
X97234Y165853D01*
X96299Y165976D01*
X95364Y165853D01*
X94492Y165492D01*
X93744Y164917D01*
X93508Y164610D01*
X90586D01*
X90351Y164917D01*
X89602Y165492D01*
X88731Y165853D01*
X87795Y165976D01*
X86860Y165853D01*
X85988Y165492D01*
X85240Y164917D01*
X85004Y164610D01*
X63543D01*
X62683Y164439D01*
X61954Y163952D01*
X53922Y155920D01*
X53435Y155191D01*
X53264Y154331D01*
X53435Y153471D01*
X53922Y152741D01*
X54071Y152642D01*
Y117958D01*
X54016Y117480D01*
X53571Y117480D01*
X52153D01*
X51890Y117480D01*
X51390Y117480D01*
X49528Y117480D01*
X49473Y117958D01*
Y157874D01*
X49378Y158350D01*
X49108Y158754D01*
X44620Y163242D01*
X44216Y163512D01*
X43740Y163607D01*
X41551D01*
X41318Y164169D01*
X40744Y164917D01*
X39996Y165492D01*
X39124Y165853D01*
X38189Y165976D01*
X37254Y165853D01*
X36382Y165492D01*
X35634Y164917D01*
X35059Y164169D01*
X34699Y163297D01*
X34575Y162362D01*
X34699Y161427D01*
X35059Y160555D01*
X35634Y159807D01*
X36382Y159233D01*
X37254Y158872D01*
X38189Y158749D01*
X39124Y158872D01*
X39996Y159233D01*
X40744Y159807D01*
X41318Y160555D01*
X41551Y161118D01*
X43225D01*
X46984Y157359D01*
Y151644D01*
X46484Y151437D01*
X43183Y154738D01*
X42779Y155008D01*
X42303Y155103D01*
X41551D01*
X41318Y155665D01*
X40744Y156413D01*
X39996Y156988D01*
X39124Y157349D01*
X38189Y157472D01*
X37254Y157349D01*
X36382Y156988D01*
X35634Y156413D01*
X35059Y155665D01*
X34699Y154794D01*
X34575Y153858D01*
X34699Y152923D01*
X35059Y152051D01*
X35634Y151303D01*
X36382Y150729D01*
X37254Y150368D01*
X38189Y150245D01*
X39124Y150368D01*
X39996Y150729D01*
X40744Y151303D01*
X41318Y152051D01*
X41420Y152296D01*
X42003Y152398D01*
X44622Y149780D01*
Y117850D01*
X44004D01*
Y115827D01*
Y113803D01*
X44937D01*
Y114173D01*
X46929D01*
Y114173D01*
X47165D01*
Y114173D01*
X49028D01*
X49291Y114173D01*
X49791Y114173D01*
X51390D01*
X51653Y114173D01*
X52153Y114173D01*
X54016Y114173D01*
X54071Y113696D01*
Y111736D01*
X53254Y110919D01*
X52984Y110516D01*
X52890Y110039D01*
Y108627D01*
X52835Y108150D01*
X52390Y108150D01*
X50972D01*
X50709Y108150D01*
X50209Y108150D01*
X48610D01*
X48346Y108150D01*
X47846Y108150D01*
X47265D01*
X47113Y108650D01*
X47140Y108667D01*
X47664Y109192D01*
X47736Y109177D01*
X48443Y109318D01*
X49042Y109718D01*
X49442Y110317D01*
X49583Y111024D01*
X49442Y111730D01*
X49042Y112329D01*
X48443Y112730D01*
X47736Y112870D01*
X47030Y112730D01*
X46431Y112329D01*
X46030Y111730D01*
X45890Y111024D01*
X45455Y110792D01*
X43996D01*
X43520Y110697D01*
X43116Y110427D01*
X41443Y108754D01*
X41286Y108520D01*
X40461D01*
Y106496D01*
Y104472D01*
X41394D01*
Y104842D01*
X43122D01*
X43386Y104842D01*
Y104842D01*
X43622D01*
X43622Y104842D01*
X45484D01*
X45748Y104842D01*
X46248Y104842D01*
X47846D01*
X48110Y104842D01*
X48610Y104842D01*
X50209D01*
X50472Y104842D01*
X50972Y104842D01*
X52571D01*
X52835Y104842D01*
X53335Y104842D01*
X55089D01*
Y99016D01*
X55196Y98477D01*
X55501Y98021D01*
X59213Y94309D01*
X59318Y93782D01*
X59718Y93182D01*
X60317Y92782D01*
X61024Y92642D01*
X61730Y92782D01*
X62329Y93182D01*
X62730Y93782D01*
X62870Y94488D01*
X62730Y95195D01*
X62379Y95719D01*
X62501Y96027D01*
X62621Y96189D01*
X63305Y96326D01*
X63904Y96726D01*
X64304Y97325D01*
X64445Y98032D01*
X64304Y98738D01*
X63904Y99337D01*
X63305Y99737D01*
X62598Y99878D01*
X61892Y99737D01*
X61537Y99500D01*
X60265Y100772D01*
Y104842D01*
X62283D01*
Y105536D01*
X62556Y105943D01*
X62666Y106496D01*
Y110039D01*
X62556Y110592D01*
X62242Y111061D01*
X61484Y111819D01*
Y113213D01*
X63083D01*
Y115591D01*
X64083D01*
Y113213D01*
X66551D01*
Y114173D01*
X67925D01*
X68189Y114173D01*
Y114173D01*
X68425D01*
X68425Y114173D01*
X70287D01*
X70551Y114173D01*
X71051Y114173D01*
X72650D01*
X72913Y114173D01*
X73413Y114173D01*
X75012D01*
X75276Y114173D01*
X75776Y114173D01*
X77374D01*
X77638Y114173D01*
X78138Y114173D01*
X79736D01*
X80000Y114173D01*
X80500Y114173D01*
X82098D01*
X82362Y114173D01*
X82862Y114173D01*
X84461D01*
X84724Y114173D01*
X85224Y114173D01*
X86823D01*
X87087Y114173D01*
X87587Y114173D01*
X89185D01*
X89449Y114173D01*
X89949Y114173D01*
X91677D01*
Y113803D01*
X92610D01*
Y115827D01*
Y117850D01*
X91992D01*
Y120941D01*
X97179Y126128D01*
X97449Y126532D01*
X97544Y127008D01*
Y133488D01*
X98106Y133721D01*
X98854Y134295D01*
X99429Y135044D01*
X99790Y135915D01*
X99913Y136850D01*
X99790Y137786D01*
X99429Y138657D01*
X98854Y139406D01*
X98106Y139980D01*
X97234Y140341D01*
X96299Y140464D01*
X95364Y140341D01*
X94492Y139980D01*
X93744Y139406D01*
X93170Y138657D01*
X92809Y137786D01*
X92686Y136850D01*
X92809Y135915D01*
X93170Y135044D01*
X93744Y134295D01*
X94492Y133721D01*
X95055Y133488D01*
Y127523D01*
X89868Y122337D01*
X89598Y121933D01*
X89504Y121457D01*
Y117958D01*
X89449Y117480D01*
X89004Y117480D01*
X87587D01*
X87323Y117480D01*
X86823Y117480D01*
X85224D01*
X84961Y117480D01*
X84461Y117480D01*
X82862D01*
X82598Y117480D01*
X82098Y117480D01*
X80236Y117480D01*
X80181Y117958D01*
Y118284D01*
X81126Y119228D01*
X83268D01*
X83744Y119323D01*
X84148Y119592D01*
X87986Y123431D01*
X88256Y123835D01*
X88351Y124311D01*
Y128051D01*
X88256Y128527D01*
X87986Y128931D01*
X86608Y130309D01*
X86205Y130579D01*
X85728Y130674D01*
X82208D01*
X77521Y135361D01*
X77535Y135433D01*
X77395Y136140D01*
X76995Y136739D01*
X76396Y137139D01*
X75689Y137280D01*
X74982Y137139D01*
X74383Y136739D01*
X73983Y136140D01*
X73843Y135433D01*
X73983Y134726D01*
X74383Y134127D01*
X74982Y133727D01*
X75689Y133587D01*
X75761Y133601D01*
X80813Y128549D01*
X81217Y128279D01*
X81693Y128185D01*
X81894D01*
X81971Y127690D01*
X81371Y127290D01*
X81331Y127229D01*
X78862D01*
X71517Y134573D01*
X71531Y134646D01*
X71391Y135352D01*
X70991Y135951D01*
X70392Y136352D01*
X69685Y136492D01*
X68978Y136352D01*
X68379Y135951D01*
X67979Y135352D01*
X67839Y134646D01*
X67979Y133939D01*
X68379Y133340D01*
X68978Y132940D01*
X69685Y132799D01*
X69757Y132814D01*
X77466Y125104D01*
X77870Y124835D01*
X78347Y124740D01*
X81331D01*
X81371Y124679D01*
X81971Y124278D01*
X82677Y124138D01*
X83384Y124278D01*
X83983Y124679D01*
X84383Y125278D01*
X84524Y125984D01*
X84383Y126691D01*
X83983Y127290D01*
X83384Y127690D01*
X83460Y128185D01*
X85213D01*
X85862Y127536D01*
Y124827D01*
X82752Y121717D01*
X80610D01*
X80134Y121622D01*
X79730Y121352D01*
X78057Y119679D01*
X77787Y119275D01*
X77693Y118799D01*
Y117958D01*
X77638Y117480D01*
X77193Y117480D01*
X75776D01*
X75512Y117480D01*
X75012Y117480D01*
X73413D01*
X73150Y117480D01*
X72650Y117480D01*
X71051D01*
X70787Y117480D01*
X70287Y117480D01*
X68571D01*
Y118701D01*
X68461Y119254D01*
X68148Y119723D01*
X67006Y120864D01*
X66537Y121178D01*
X65984Y121288D01*
X62924D01*
X62607Y121674D01*
X62634Y121811D01*
Y124426D01*
X63100Y125124D01*
X63112Y125182D01*
X63494Y125754D01*
X63665Y126614D01*
Y146313D01*
X68963Y151610D01*
X85004D01*
X85240Y151303D01*
X85988Y150729D01*
X86860Y150368D01*
X87795Y150245D01*
X88731Y150368D01*
X89602Y150729D01*
X90351Y151303D01*
X90586Y151610D01*
X93508D01*
X93744Y151303D01*
X94051Y151067D01*
Y148145D01*
X93744Y147909D01*
X93170Y147161D01*
X92809Y146290D01*
X92686Y145354D01*
X92809Y144419D01*
X93170Y143547D01*
X93744Y142799D01*
X94492Y142225D01*
X95364Y141864D01*
X96299Y141741D01*
X97234Y141864D01*
X98106Y142225D01*
X98854Y142799D01*
X99429Y143547D01*
X99790Y144419D01*
X99913Y145354D01*
X99790Y146290D01*
X99429Y147161D01*
X98854Y147909D01*
X98547Y148145D01*
Y151067D01*
X98854Y151303D01*
X99429Y152051D01*
X99790Y152923D01*
X99913Y153858D01*
X99790Y154794D01*
X99429Y155665D01*
X98854Y156413D01*
X98106Y156988D01*
X97234Y157349D01*
X96299Y157472D01*
X95364Y157349D01*
X94492Y156988D01*
X93744Y156413D01*
X93508Y156106D01*
X90586D01*
X90351Y156413D01*
X89602Y156988D01*
X88731Y157349D01*
X87795Y157472D01*
X86860Y157349D01*
X85988Y156988D01*
X85240Y156413D01*
X85004Y156106D01*
X68032D01*
X67171Y155935D01*
X66442Y155448D01*
X59828Y148834D01*
X59341Y148104D01*
X59169Y147244D01*
Y127414D01*
X58947Y127081D01*
X58776Y126221D01*
Y125984D01*
X58941Y125154D01*
Y121811D01*
X59082Y121104D01*
X59342Y120714D01*
Y120441D01*
X59017Y120116D01*
X58704Y119648D01*
X58594Y119095D01*
Y117480D01*
X56614D01*
X56559Y117958D01*
Y152379D01*
X57101Y152741D01*
X64474Y160114D01*
X85004D01*
X85240Y159807D01*
X85988Y159233D01*
X86860Y158872D01*
X87795Y158749D01*
X88731Y158872D01*
X89602Y159233D01*
X90351Y159807D01*
X90586Y160114D01*
X93508D01*
X93744Y159807D01*
X94492Y159233D01*
X95364Y158872D01*
X96299Y158749D01*
X97234Y158872D01*
X98106Y159233D01*
X98854Y159807D01*
X99090Y160114D01*
X102012D01*
X102248Y159807D01*
X102996Y159233D01*
X103868Y158872D01*
X104803Y158749D01*
X105738Y158872D01*
X106610Y159233D01*
X107358Y159807D01*
X107933Y160555D01*
X108294Y161427D01*
X108417Y162362D01*
X108294Y163297D01*
X107933Y164169D01*
X107358Y164917D01*
X106610Y165492D01*
X105738Y165853D01*
X104803Y165976D01*
D02*
G37*
G36*
X30185Y166283D02*
Y162862D01*
X33606D01*
X33536Y163394D01*
X33138Y164356D01*
X32504Y165181D01*
X31679Y165815D01*
X30717Y166213D01*
X30185Y166283D01*
D02*
G37*
G36*
X13177D02*
Y162862D01*
X16598D01*
X16528Y163394D01*
X16130Y164356D01*
X15496Y165181D01*
X14671Y165815D01*
X13709Y166213D01*
X13177Y166283D01*
D02*
G37*
G36*
X12177Y166283D02*
X11645Y166213D01*
X10684Y165815D01*
X9858Y165181D01*
X9224Y164356D01*
X8826Y163394D01*
X8756Y162862D01*
X12177D01*
Y166283D01*
D02*
G37*
G36*
X29185D02*
X28653Y166213D01*
X27692Y165815D01*
X26866Y165181D01*
X26232Y164356D01*
X25834Y163394D01*
X25764Y162862D01*
X29185D01*
Y166283D01*
D02*
G37*
G36*
X113307Y165976D02*
X112372Y165853D01*
X111500Y165492D01*
X110752Y164917D01*
X110178Y164169D01*
X109817Y163297D01*
X109694Y162362D01*
X109817Y161427D01*
X110178Y160555D01*
X110752Y159807D01*
X111500Y159233D01*
X112372Y158872D01*
X113307Y158749D01*
X114242Y158872D01*
X115114Y159233D01*
X115862Y159807D01*
X116437Y160555D01*
X116797Y161427D01*
X116921Y162362D01*
X116797Y163297D01*
X116437Y164169D01*
X115862Y164917D01*
X115114Y165492D01*
X114242Y165853D01*
X113307Y165976D01*
D02*
G37*
G36*
X21181D02*
X20246Y165853D01*
X19374Y165492D01*
X18626Y164917D01*
X18052Y164169D01*
X17691Y163297D01*
X17568Y162362D01*
X17691Y161427D01*
X18052Y160555D01*
X18626Y159807D01*
X19374Y159233D01*
X20246Y158872D01*
X21181Y158749D01*
X22116Y158872D01*
X22988Y159233D01*
X23736Y159807D01*
X24311Y160555D01*
X24672Y161427D01*
X24795Y162362D01*
X24672Y163297D01*
X24311Y164169D01*
X23736Y164917D01*
X22988Y165492D01*
X22116Y165853D01*
X21181Y165976D01*
D02*
G37*
G36*
X33606Y161862D02*
X30185D01*
Y158441D01*
X30717Y158511D01*
X31679Y158909D01*
X32504Y159543D01*
X33138Y160369D01*
X33536Y161330D01*
X33606Y161862D01*
D02*
G37*
G36*
X16598D02*
X13177D01*
Y158441D01*
X13709Y158511D01*
X14671Y158909D01*
X15496Y159543D01*
X16130Y160369D01*
X16528Y161330D01*
X16598Y161862D01*
D02*
G37*
G36*
X12177D02*
X8756D01*
X8826Y161330D01*
X9224Y160369D01*
X9858Y159543D01*
X10684Y158909D01*
X11645Y158511D01*
X12177Y158441D01*
Y161862D01*
D02*
G37*
G36*
X29185D02*
X25764D01*
X25834Y161330D01*
X26232Y160369D01*
X26866Y159543D01*
X27692Y158909D01*
X28653Y158511D01*
X29185Y158441D01*
Y161862D01*
D02*
G37*
G36*
X30185Y157779D02*
Y154358D01*
X33606D01*
X33536Y154890D01*
X33138Y155852D01*
X32504Y156677D01*
X31679Y157311D01*
X30717Y157709D01*
X30185Y157779D01*
D02*
G37*
G36*
X13177D02*
Y154358D01*
X16598D01*
X16528Y154890D01*
X16130Y155852D01*
X15496Y156677D01*
X14671Y157311D01*
X13709Y157709D01*
X13177Y157779D01*
D02*
G37*
G36*
X105303Y157779D02*
Y154358D01*
X108724D01*
X108654Y154890D01*
X108256Y155852D01*
X107622Y156677D01*
X106797Y157311D01*
X105835Y157709D01*
X105303Y157779D01*
D02*
G37*
G36*
X104303Y157779D02*
X103771Y157709D01*
X102810Y157311D01*
X101984Y156677D01*
X101350Y155852D01*
X100952Y154890D01*
X100882Y154358D01*
X104303D01*
Y157779D01*
D02*
G37*
G36*
X12177Y157779D02*
X11645Y157709D01*
X10684Y157311D01*
X9858Y156677D01*
X9224Y155852D01*
X8826Y154890D01*
X8756Y154358D01*
X12177D01*
Y157779D01*
D02*
G37*
G36*
X29185D02*
X28653Y157709D01*
X27692Y157311D01*
X26866Y156677D01*
X26232Y155852D01*
X25834Y154890D01*
X25764Y154358D01*
X29185D01*
Y157779D01*
D02*
G37*
G36*
X113307Y157472D02*
X112372Y157349D01*
X111500Y156988D01*
X110752Y156413D01*
X110178Y155665D01*
X109817Y154794D01*
X109694Y153858D01*
X109817Y152923D01*
X110178Y152051D01*
X110752Y151303D01*
X111500Y150729D01*
X112372Y150368D01*
X113307Y150245D01*
X114242Y150368D01*
X115114Y150729D01*
X115862Y151303D01*
X116437Y152051D01*
X116797Y152923D01*
X116921Y153858D01*
X116797Y154794D01*
X116437Y155665D01*
X115862Y156413D01*
X115114Y156988D01*
X114242Y157349D01*
X113307Y157472D01*
D02*
G37*
G36*
X21181D02*
X20246Y157349D01*
X19374Y156988D01*
X18626Y156413D01*
X18052Y155665D01*
X17691Y154794D01*
X17568Y153858D01*
X17691Y152923D01*
X18052Y152051D01*
X18626Y151303D01*
X19374Y150729D01*
X20246Y150368D01*
X21181Y150245D01*
X22116Y150368D01*
X22988Y150729D01*
X23736Y151303D01*
X24311Y152051D01*
X24672Y152923D01*
X24795Y153858D01*
X24672Y154794D01*
X24311Y155665D01*
X23736Y156413D01*
X22988Y156988D01*
X22116Y157349D01*
X21181Y157472D01*
D02*
G37*
G36*
X33606Y153358D02*
X30185D01*
Y149937D01*
X30717Y150007D01*
X31679Y150406D01*
X32504Y151039D01*
X33138Y151865D01*
X33536Y152826D01*
X33606Y153358D01*
D02*
G37*
G36*
X16598D02*
X13177D01*
Y149937D01*
X13709Y150007D01*
X14671Y150406D01*
X15496Y151039D01*
X16130Y151865D01*
X16528Y152826D01*
X16598Y153358D01*
D02*
G37*
G36*
X104303D02*
X100882D01*
X100952Y152826D01*
X101350Y151865D01*
X101984Y151039D01*
X102810Y150406D01*
X103771Y150007D01*
X104303Y149937D01*
Y153358D01*
D02*
G37*
G36*
X108724D02*
X105303D01*
Y149937D01*
X105835Y150007D01*
X106797Y150406D01*
X107622Y151039D01*
X108256Y151865D01*
X108654Y152826D01*
X108724Y153358D01*
D02*
G37*
G36*
X12177D02*
X8756D01*
X8826Y152826D01*
X9224Y151865D01*
X9858Y151039D01*
X10684Y150406D01*
X11645Y150007D01*
X12177Y149937D01*
Y153358D01*
D02*
G37*
G36*
X29185D02*
X25764D01*
X25834Y152826D01*
X26232Y151865D01*
X26866Y151039D01*
X27692Y150406D01*
X28653Y150007D01*
X29185Y149937D01*
Y153358D01*
D02*
G37*
G36*
X113307Y148968D02*
X112372Y148845D01*
X111500Y148484D01*
X110752Y147909D01*
X110178Y147161D01*
X109817Y146290D01*
X109694Y145354D01*
X109817Y144419D01*
X110178Y143547D01*
X110752Y142799D01*
X111500Y142225D01*
X112372Y141864D01*
X113307Y141741D01*
X114242Y141864D01*
X115114Y142225D01*
X115862Y142799D01*
X116437Y143547D01*
X116797Y144419D01*
X116921Y145354D01*
X116797Y146290D01*
X116437Y147161D01*
X115862Y147909D01*
X115114Y148484D01*
X114242Y148845D01*
X113307Y148968D01*
D02*
G37*
G36*
X104803D02*
X103868Y148845D01*
X102996Y148484D01*
X102248Y147909D01*
X101674Y147161D01*
X101313Y146290D01*
X101190Y145354D01*
X101313Y144419D01*
X101674Y143547D01*
X102248Y142799D01*
X102996Y142225D01*
X103868Y141864D01*
X104803Y141741D01*
X105738Y141864D01*
X106610Y142225D01*
X107358Y142799D01*
X107933Y143547D01*
X108294Y144419D01*
X108417Y145354D01*
X108294Y146290D01*
X107933Y147161D01*
X107358Y147909D01*
X106610Y148484D01*
X105738Y148845D01*
X104803Y148968D01*
D02*
G37*
G36*
X87795D02*
X86860Y148845D01*
X85988Y148484D01*
X85240Y147909D01*
X84666Y147161D01*
X84305Y146290D01*
X84182Y145354D01*
X84305Y144419D01*
X84666Y143547D01*
X85240Y142799D01*
X85988Y142225D01*
X86860Y141864D01*
X87795Y141741D01*
X88731Y141864D01*
X89602Y142225D01*
X90351Y142799D01*
X90925Y143547D01*
X91286Y144419D01*
X91409Y145354D01*
X91286Y146290D01*
X90925Y147161D01*
X90351Y147909D01*
X89602Y148484D01*
X88731Y148845D01*
X87795Y148968D01*
D02*
G37*
G36*
X38189D02*
X37254Y148845D01*
X36382Y148484D01*
X35634Y147909D01*
X35059Y147161D01*
X34699Y146290D01*
X34575Y145354D01*
X34699Y144419D01*
X35059Y143547D01*
X35634Y142799D01*
X36382Y142225D01*
X37254Y141864D01*
X38189Y141741D01*
X39124Y141864D01*
X39996Y142225D01*
X40744Y142799D01*
X41318Y143547D01*
X41679Y144419D01*
X41803Y145354D01*
X41679Y146290D01*
X41318Y147161D01*
X40744Y147909D01*
X39996Y148484D01*
X39124Y148845D01*
X38189Y148968D01*
D02*
G37*
G36*
X29685D02*
X28750Y148845D01*
X27878Y148484D01*
X27130Y147909D01*
X26556Y147161D01*
X26195Y146290D01*
X26072Y145354D01*
X26195Y144419D01*
X26556Y143547D01*
X27130Y142799D01*
X27878Y142225D01*
X28750Y141864D01*
X29685Y141741D01*
X30620Y141864D01*
X31492Y142225D01*
X32240Y142799D01*
X32814Y143547D01*
X33176Y144419D01*
X33299Y145354D01*
X33176Y146290D01*
X32814Y147161D01*
X32240Y147909D01*
X31492Y148484D01*
X30620Y148845D01*
X29685Y148968D01*
D02*
G37*
G36*
X21181D02*
X20246Y148845D01*
X19374Y148484D01*
X18626Y147909D01*
X18052Y147161D01*
X17691Y146290D01*
X17568Y145354D01*
X17691Y144419D01*
X18052Y143547D01*
X18626Y142799D01*
X19374Y142225D01*
X20246Y141864D01*
X21181Y141741D01*
X22116Y141864D01*
X22679Y142097D01*
X24110Y140666D01*
Y139682D01*
X23610Y139503D01*
X22988Y139980D01*
X22116Y140341D01*
X21181Y140464D01*
X20246Y140341D01*
X19374Y139980D01*
X18626Y139406D01*
X18052Y138657D01*
X17691Y137786D01*
X17568Y136850D01*
X17691Y135915D01*
X18052Y135044D01*
X18626Y134295D01*
X19374Y133721D01*
X20246Y133360D01*
X21181Y133237D01*
X22116Y133360D01*
X22988Y133721D01*
X23610Y134198D01*
X24110Y134019D01*
Y128386D01*
X24205Y127910D01*
X24474Y127506D01*
X32811Y119170D01*
Y115827D01*
X32906Y115351D01*
X32992Y115221D01*
Y114173D01*
X35118D01*
Y114173D01*
X35354D01*
Y114173D01*
X37347D01*
Y113803D01*
X38280D01*
Y115827D01*
Y117850D01*
X37662D01*
Y122539D01*
X37567Y123016D01*
X37297Y123419D01*
X30929Y129787D01*
Y133488D01*
X31492Y133721D01*
X32240Y134295D01*
X32814Y135044D01*
X33176Y135915D01*
X33299Y136850D01*
X33176Y137786D01*
X32814Y138657D01*
X32240Y139406D01*
X31492Y139980D01*
X30620Y140341D01*
X29685Y140464D01*
X28750Y140341D01*
X27878Y139980D01*
X27130Y139406D01*
X27072Y139330D01*
X26599Y139491D01*
Y141181D01*
X26504Y141657D01*
X26234Y142061D01*
X24439Y143857D01*
X24672Y144419D01*
X24795Y145354D01*
X24672Y146290D01*
X24311Y147161D01*
X23736Y147909D01*
X22988Y148484D01*
X22116Y148845D01*
X21181Y148968D01*
D02*
G37*
G36*
X113307Y140464D02*
X112372Y140341D01*
X111500Y139980D01*
X110752Y139406D01*
X110178Y138657D01*
X109817Y137786D01*
X109694Y136850D01*
X109817Y135915D01*
X110178Y135044D01*
X110752Y134295D01*
X111500Y133721D01*
X112372Y133360D01*
X113307Y133237D01*
X114242Y133360D01*
X115114Y133721D01*
X115862Y134295D01*
X116437Y135044D01*
X116797Y135915D01*
X116921Y136850D01*
X116797Y137786D01*
X116437Y138657D01*
X115862Y139406D01*
X115114Y139980D01*
X114242Y140341D01*
X113307Y140464D01*
D02*
G37*
G36*
X104803D02*
X103868Y140341D01*
X102996Y139980D01*
X102248Y139406D01*
X101674Y138657D01*
X101313Y137786D01*
X101190Y136850D01*
X101313Y135915D01*
X101674Y135044D01*
X102248Y134295D01*
X102996Y133721D01*
X103868Y133360D01*
X104803Y133237D01*
X105738Y133360D01*
X106610Y133721D01*
X107358Y134295D01*
X107933Y135044D01*
X108294Y135915D01*
X108417Y136850D01*
X108294Y137786D01*
X107933Y138657D01*
X107358Y139406D01*
X106610Y139980D01*
X105738Y140341D01*
X104803Y140464D01*
D02*
G37*
G36*
X87795D02*
X86860Y140341D01*
X85988Y139980D01*
X85240Y139406D01*
X84666Y138657D01*
X84305Y137786D01*
X84182Y136850D01*
X84305Y135915D01*
X84666Y135044D01*
X85240Y134295D01*
X85988Y133721D01*
X86860Y133360D01*
X87795Y133237D01*
X88731Y133360D01*
X89602Y133721D01*
X90351Y134295D01*
X90925Y135044D01*
X91286Y135915D01*
X91409Y136850D01*
X91286Y137786D01*
X90925Y138657D01*
X90351Y139406D01*
X89602Y139980D01*
X88731Y140341D01*
X87795Y140464D01*
D02*
G37*
G36*
X94543Y117850D02*
X93610D01*
Y116327D01*
X94543D01*
Y117850D01*
D02*
G37*
G36*
X102181Y117968D02*
X99319D01*
Y116091D01*
X102181D01*
Y117968D01*
D02*
G37*
G36*
X98319D02*
X95457D01*
Y116091D01*
X98319D01*
Y117968D01*
D02*
G37*
G36*
X31709D02*
X28846D01*
Y116091D01*
X31709D01*
Y117968D01*
D02*
G37*
G36*
X27847D02*
X24984D01*
Y116091D01*
X27847D01*
Y117968D01*
D02*
G37*
G36*
X94543Y115327D02*
X93610D01*
Y113803D01*
X94543D01*
Y115327D01*
D02*
G37*
G36*
X38189Y140464D02*
X37254Y140341D01*
X36382Y139980D01*
X35634Y139406D01*
X35059Y138657D01*
X34699Y137786D01*
X34575Y136850D01*
X34699Y135915D01*
X35059Y135044D01*
X35634Y134295D01*
X36382Y133721D01*
X36945Y133488D01*
Y130413D01*
X37039Y129937D01*
X37309Y129534D01*
X39897Y126945D01*
Y117850D01*
X39279D01*
Y115827D01*
Y113803D01*
X40213D01*
Y114173D01*
X42071D01*
Y113803D01*
X43004D01*
Y115827D01*
Y117850D01*
X42386D01*
Y127461D01*
X42291Y127937D01*
X42022Y128340D01*
X39433Y130929D01*
Y133488D01*
X39996Y133721D01*
X40744Y134295D01*
X41318Y135044D01*
X41679Y135915D01*
X41803Y136850D01*
X41679Y137786D01*
X41318Y138657D01*
X40744Y139406D01*
X39996Y139980D01*
X39124Y140341D01*
X38189Y140464D01*
D02*
G37*
G36*
X102181Y115091D02*
X99319D01*
Y113213D01*
X102181D01*
Y115091D01*
D02*
G37*
G36*
X98319D02*
X95457D01*
Y113213D01*
X98319D01*
Y115091D01*
D02*
G37*
G36*
X88268Y108150D02*
Y108150D01*
X86142Y108150D01*
X85642Y108150D01*
X84043D01*
X83780Y108150D01*
X83280Y108150D01*
X81681D01*
X81417Y108150D01*
X80917Y108150D01*
X79319D01*
X79055Y108150D01*
X78555Y108150D01*
X76957D01*
X76693Y108150D01*
X76193Y108150D01*
X74594D01*
X74331Y108150D01*
X73831Y108150D01*
X72232D01*
X71969Y108150D01*
X71469Y108150D01*
X69870D01*
X69606Y108150D01*
X69106Y108150D01*
X67508D01*
X67244Y108150D01*
X66744Y108150D01*
X64882D01*
Y104842D01*
X66744D01*
X67008Y104842D01*
X67508Y104842D01*
X69106D01*
X69370Y104842D01*
X69870Y104842D01*
X71469D01*
X71732Y104842D01*
X72232Y104842D01*
X73831D01*
X74094Y104842D01*
X74594Y104842D01*
X76193D01*
X76457Y104842D01*
X76957Y104842D01*
X78555D01*
X78819Y104842D01*
X79319Y104842D01*
X81181Y104842D01*
X81236Y104365D01*
Y99531D01*
X81010Y99305D01*
X80740Y98901D01*
X80645Y98425D01*
Y95047D01*
X80584Y95007D01*
X80184Y94407D01*
X80043Y93701D01*
X80184Y92994D01*
X80584Y92395D01*
X81183Y91995D01*
X81890Y91854D01*
X82596Y91995D01*
X83195Y92395D01*
X83596Y92994D01*
X83736Y93701D01*
X83596Y94407D01*
X83195Y95007D01*
X83134Y95047D01*
Y97910D01*
X83360Y98136D01*
X83630Y98540D01*
X83725Y99016D01*
Y104365D01*
X83780Y104842D01*
X84225Y104842D01*
X85905Y104842D01*
X85960Y104365D01*
Y95197D01*
X85696Y94801D01*
X85555Y94095D01*
X85696Y93388D01*
X86096Y92789D01*
X86695Y92388D01*
X87402Y92248D01*
X88108Y92388D01*
X88707Y92789D01*
X88981Y93198D01*
X89113Y93387D01*
X89607Y93335D01*
X89845Y93176D01*
X90551Y93035D01*
X91258Y93176D01*
X91857Y93576D01*
X92257Y94175D01*
X92398Y94882D01*
X92393Y94903D01*
X92854Y95150D01*
X94396Y93608D01*
X94799Y93339D01*
X95276Y93244D01*
X96685D01*
X96726Y93182D01*
X97325Y92782D01*
X98032Y92642D01*
X98738Y92782D01*
X99337Y93182D01*
X99737Y93782D01*
X99878Y94488D01*
X99737Y95195D01*
X99337Y95794D01*
X99090Y95959D01*
Y96561D01*
X99337Y96726D01*
X99737Y97325D01*
X99878Y98032D01*
X99737Y98738D01*
X99337Y99337D01*
X98738Y99737D01*
X98032Y99878D01*
X97325Y99737D01*
X96726Y99337D01*
X96685Y99276D01*
X95783D01*
X95536Y99523D01*
Y106496D01*
X95441Y106972D01*
X95354Y107102D01*
Y108150D01*
X93228D01*
Y108150D01*
X92992D01*
Y108150D01*
X90866D01*
Y108150D01*
X90630D01*
Y108150D01*
X90366Y108150D01*
X88504D01*
Y108150D01*
X88268D01*
D02*
G37*
G36*
X102181Y108913D02*
X100303D01*
Y107035D01*
X102181D01*
Y108913D01*
D02*
G37*
G36*
X99303D02*
X97425D01*
Y107035D01*
X99303D01*
Y108913D01*
D02*
G37*
G36*
X31709Y115091D02*
X24984D01*
Y113213D01*
X27217D01*
X27369Y112713D01*
X26942Y112428D01*
X26542Y111829D01*
X26401Y111122D01*
X26542Y110415D01*
X26942Y109816D01*
X27541Y109416D01*
X27555Y109413D01*
X27506Y108913D01*
X24984D01*
Y107035D01*
X29740D01*
Y107217D01*
X30202Y107408D01*
X31697Y105913D01*
X31811Y105743D01*
Y104842D01*
X33937D01*
Y104842D01*
X34173D01*
Y104842D01*
X36299D01*
Y104842D01*
X36536D01*
Y104842D01*
X38528D01*
Y104472D01*
X39461D01*
Y106496D01*
Y108520D01*
X38843D01*
Y110335D01*
X38748Y110811D01*
X38721Y110851D01*
X38756Y111024D01*
X38615Y111730D01*
X38215Y112329D01*
X37616Y112730D01*
X36909Y112870D01*
X36203Y112730D01*
X35604Y112329D01*
X35203Y111730D01*
X35149Y111455D01*
X34585Y111181D01*
X34460Y111244D01*
X34383Y111632D01*
X33983Y112231D01*
X33384Y112631D01*
X32677Y112772D01*
X31971Y112631D01*
X31372Y112231D01*
X30971Y111632D01*
X30863Y111086D01*
X30394Y110889D01*
X30345Y110927D01*
X30087Y111162D01*
X29954Y111829D01*
X29554Y112428D01*
X29127Y112713D01*
X29279Y113213D01*
X31709D01*
Y115091D01*
D02*
G37*
G36*
X102181Y106035D02*
X100303D01*
Y104157D01*
X102181D01*
Y106035D01*
D02*
G37*
G36*
X99303D02*
X97425D01*
Y104157D01*
X99303D01*
Y106035D01*
D02*
G37*
G36*
X29740D02*
X27862D01*
Y104157D01*
X29740D01*
Y106035D01*
D02*
G37*
G36*
X26862D02*
X24984D01*
Y104157D01*
X26862D01*
Y106035D01*
D02*
G37*
G36*
X30528Y94898D02*
X28650D01*
Y91839D01*
X30528D01*
Y94898D01*
D02*
G37*
G36*
X27650D02*
X25772D01*
Y91839D01*
X27650D01*
Y94898D01*
D02*
G37*
G36*
X12677Y148968D02*
X11742Y148845D01*
X10870Y148484D01*
X10122Y147909D01*
X9548Y147161D01*
X9187Y146290D01*
X9064Y145354D01*
X9187Y144419D01*
X9548Y143547D01*
X10056Y142885D01*
Y139320D01*
X9548Y138657D01*
X9187Y137786D01*
X9064Y136850D01*
X9187Y135915D01*
X9548Y135044D01*
X10122Y134295D01*
X10429Y134059D01*
Y92126D01*
X10600Y91266D01*
X10626Y91227D01*
Y80905D01*
Y69882D01*
Y61929D01*
X10797Y61069D01*
X11285Y60340D01*
X18489Y53135D01*
X19218Y52648D01*
X20079Y52477D01*
X22441D01*
X23301Y52648D01*
X23646Y52878D01*
X24590D01*
Y50245D01*
X24590D01*
Y50170D01*
X24126Y49670D01*
X16929D01*
X16453Y49575D01*
X16049Y49305D01*
X13634Y46890D01*
X11969D01*
Y44307D01*
X11598D01*
Y42823D01*
X13780D01*
X15961D01*
Y44307D01*
X15590D01*
Y45327D01*
X17445Y47181D01*
X18282D01*
X18661Y46890D01*
Y44307D01*
X18291D01*
Y42823D01*
X20472D01*
X22654D01*
Y44031D01*
X24590D01*
Y43946D01*
X29150D01*
Y44675D01*
X34146D01*
Y51575D01*
Y58475D01*
X29150D01*
Y59204D01*
X24839D01*
X22898Y61145D01*
Y61646D01*
X22959Y61686D01*
X23359Y62286D01*
X23500Y62992D01*
X23359Y63699D01*
X22959Y64298D01*
X22360Y64698D01*
X21654Y64839D01*
X20947Y64698D01*
X20348Y64298D01*
X19948Y63699D01*
X19807Y62992D01*
X19948Y62286D01*
X20348Y61686D01*
X20409Y61646D01*
Y60630D01*
X20504Y60154D01*
X20774Y59750D01*
X23191Y57333D01*
X22944Y56872D01*
X22441Y56972D01*
X21010D01*
X15122Y62860D01*
Y67831D01*
X18661D01*
Y66890D01*
X22677D01*
Y69115D01*
X22746Y69218D01*
X22917Y70079D01*
X22746Y70939D01*
X22677Y71042D01*
Y73268D01*
X18661D01*
Y72327D01*
X15122D01*
Y78461D01*
X18661D01*
Y77520D01*
X22677D01*
Y79745D01*
X22746Y79848D01*
X22917Y80709D01*
X22746Y81569D01*
X22677Y81672D01*
Y83898D01*
X18661D01*
Y82957D01*
X15122D01*
Y89091D01*
X18661D01*
Y88150D01*
X22677D01*
Y90375D01*
X22746Y90478D01*
X22917Y91339D01*
X22746Y92199D01*
X22677Y92302D01*
Y94528D01*
X18661D01*
Y93586D01*
X14925D01*
Y134059D01*
X15232Y134295D01*
X15807Y135044D01*
X16168Y135915D01*
X16291Y136850D01*
X16168Y137786D01*
X15807Y138657D01*
X15298Y139320D01*
Y142885D01*
X15807Y143547D01*
X16168Y144419D01*
X16291Y145354D01*
X16168Y146290D01*
X15807Y147161D01*
X15232Y147909D01*
X14484Y148484D01*
X13612Y148845D01*
X12677Y148968D01*
D02*
G37*
G36*
X30528Y90839D02*
X28650D01*
Y87779D01*
X30528D01*
Y90839D01*
D02*
G37*
G36*
X27650D02*
X25772D01*
Y87779D01*
X27650D01*
Y90839D01*
D02*
G37*
G36*
X30528Y84268D02*
X28650D01*
Y81209D01*
X30528D01*
Y84268D01*
D02*
G37*
G36*
X27650D02*
X25772D01*
Y81209D01*
X27650D01*
Y84268D01*
D02*
G37*
G36*
X108504Y91181D02*
X93071D01*
Y86894D01*
X87402D01*
X86541Y86722D01*
X85812Y86235D01*
X79777Y80201D01*
X76221D01*
Y85079D01*
X65118D01*
Y76959D01*
X50472Y62312D01*
X49864Y62920D01*
X49878Y62992D01*
X49737Y63699D01*
X49337Y64298D01*
X48738Y64698D01*
X48031Y64839D01*
X47325Y64698D01*
X46726Y64298D01*
X46326Y63699D01*
X46185Y62992D01*
X46326Y62286D01*
X46726Y61686D01*
X47325Y61286D01*
X48031Y61146D01*
X48104Y61160D01*
X48712Y60552D01*
X47229Y59070D01*
X46742Y58341D01*
X46571Y57480D01*
Y56837D01*
X46442Y56708D01*
X46351Y56571D01*
X44701D01*
Y59204D01*
X40141D01*
Y58475D01*
X35146D01*
Y51575D01*
Y44675D01*
X40141D01*
Y43946D01*
X44452D01*
X46364Y42033D01*
X46768Y41764D01*
X47244Y41669D01*
X73622D01*
X74098Y41764D01*
X74502Y42033D01*
X75319Y42850D01*
X83071D01*
X83547Y42945D01*
X83951Y43215D01*
X84767Y44031D01*
X89921D01*
Y43465D01*
X96102D01*
Y44031D01*
X101492D01*
Y27402D01*
X97205D01*
Y19842D01*
X101394D01*
Y15990D01*
X100742Y15338D01*
X41083D01*
Y17067D01*
X37461D01*
Y15338D01*
X36161D01*
Y17067D01*
X32539D01*
Y14349D01*
X32274Y13951D01*
X32103Y13091D01*
X32274Y12230D01*
X32539Y11833D01*
Y9114D01*
X36161D01*
Y10843D01*
X37461D01*
Y9114D01*
X41083D01*
Y10843D01*
X101673D01*
X102533Y11014D01*
X103263Y11501D01*
X105231Y13469D01*
X105719Y14199D01*
X105890Y15059D01*
Y19842D01*
X110079D01*
Y27402D01*
X105988D01*
Y46063D01*
Y50984D01*
X105817Y51845D01*
X105330Y52574D01*
X103128Y54776D01*
X103259Y55276D01*
X108504D01*
Y68347D01*
X93071D01*
Y55276D01*
X98540D01*
Y53937D01*
X98711Y53077D01*
X99198Y52347D01*
X101492Y50053D01*
Y46520D01*
X96102D01*
Y47087D01*
X89921D01*
Y46520D01*
X84252D01*
X83776Y46425D01*
X83372Y46156D01*
X82555Y45339D01*
X76047D01*
Y47106D01*
X76614D01*
Y49689D01*
X76984D01*
Y51173D01*
X74803D01*
X72622D01*
Y49689D01*
X72992D01*
Y47106D01*
X73559D01*
Y44610D01*
X73107Y44158D01*
X47760D01*
X45762Y46156D01*
X45358Y46425D01*
X45179Y46461D01*
X45130Y46536D01*
X45024Y47029D01*
X45166Y47181D01*
X48583D01*
Y47008D01*
X52205D01*
Y47378D01*
X55472D01*
Y46811D01*
X61654D01*
Y47378D01*
X65905D01*
Y47008D01*
X69528D01*
Y49591D01*
X69898D01*
Y51075D01*
X67716D01*
X65535D01*
Y49866D01*
X61654D01*
Y50433D01*
X55472D01*
Y49866D01*
X52575D01*
Y51075D01*
X50394D01*
Y52075D01*
X52575D01*
Y53559D01*
X50305D01*
X50113Y54021D01*
X50408Y54316D01*
X50896Y55045D01*
X51067Y55905D01*
Y56549D01*
X52771Y58253D01*
X52771Y58253D01*
X65344Y70827D01*
X76221D01*
Y75705D01*
X80709D01*
X81569Y75876D01*
X82298Y76363D01*
X88333Y82398D01*
X93071D01*
Y78110D01*
X108504D01*
Y91181D01*
D02*
G37*
G36*
X49425Y85449D02*
X44004D01*
Y78453D01*
X49425D01*
Y85449D01*
D02*
G37*
G36*
X43004D02*
X37583D01*
Y78453D01*
X43004D01*
Y85449D01*
D02*
G37*
G36*
X30528Y80209D02*
X28650D01*
Y77150D01*
X30528D01*
Y80209D01*
D02*
G37*
G36*
X27650D02*
X25772D01*
Y77150D01*
X27650D01*
Y80209D01*
D02*
G37*
G36*
X30528Y73638D02*
X28650D01*
Y70579D01*
X30528D01*
Y73638D01*
D02*
G37*
G36*
X27650D02*
X25772D01*
Y70579D01*
X27650D01*
Y73638D01*
D02*
G37*
G36*
X49425Y77453D02*
X44004D01*
Y70457D01*
X49425D01*
Y77453D01*
D02*
G37*
G36*
X43004D02*
X37583D01*
Y70457D01*
X43004D01*
Y77453D01*
D02*
G37*
G36*
X30528Y69579D02*
X28650D01*
Y66520D01*
X30528D01*
Y69579D01*
D02*
G37*
G36*
X27650D02*
X25772D01*
Y66520D01*
X27650D01*
Y69579D01*
D02*
G37*
G36*
X76984Y53658D02*
X75303D01*
Y52173D01*
X76984D01*
Y53658D01*
D02*
G37*
G36*
X74303D02*
X72622D01*
Y52173D01*
X74303D01*
Y53658D01*
D02*
G37*
G36*
X69898Y53559D02*
X68217D01*
Y52075D01*
X69898D01*
Y53559D01*
D02*
G37*
G36*
X67216D02*
X65535D01*
Y52075D01*
X67216D01*
Y53559D01*
D02*
G37*
G36*
X113598Y49622D02*
X111721D01*
Y46563D01*
X113598D01*
Y49622D01*
D02*
G37*
G36*
X110721D02*
X108843D01*
Y46563D01*
X110721D01*
Y49622D01*
D02*
G37*
G36*
X113598Y45563D02*
X111721D01*
Y42504D01*
X113598D01*
Y45563D01*
D02*
G37*
G36*
X110721D02*
X108843D01*
Y42504D01*
X110721D01*
Y45563D01*
D02*
G37*
G36*
X22654Y41823D02*
X20972D01*
Y40339D01*
X22654D01*
Y41823D01*
D02*
G37*
G36*
X19972D02*
X18291D01*
Y40339D01*
X19972D01*
Y41823D01*
D02*
G37*
G36*
X15961Y41823D02*
X14280D01*
Y40339D01*
X15961D01*
Y41823D01*
D02*
G37*
G36*
X13280D02*
X11598D01*
Y40339D01*
X13280D01*
Y41823D01*
D02*
G37*
G36*
X20193Y32791D02*
X17724D01*
Y26779D01*
X20193D01*
Y32791D01*
D02*
G37*
G36*
X49524D02*
X47055D01*
Y26779D01*
X49524D01*
Y32791D01*
D02*
G37*
G36*
X46055D02*
X43587D01*
Y26779D01*
X46055D01*
Y32791D01*
D02*
G37*
G36*
X16724D02*
X14256D01*
Y26779D01*
X16724D01*
Y32791D01*
D02*
G37*
G36*
X84268Y27772D02*
X77961D01*
Y24122D01*
X84268D01*
Y27772D01*
D02*
G37*
G36*
X76961D02*
X70653D01*
Y24122D01*
X76961D01*
Y27772D01*
D02*
G37*
G36*
X49524Y25780D02*
X47055D01*
Y19768D01*
X49524D01*
Y25780D01*
D02*
G37*
G36*
X46055D02*
X43587D01*
Y19768D01*
X46055D01*
Y25780D01*
D02*
G37*
G36*
X20193D02*
X17724D01*
Y19768D01*
X20193D01*
Y25780D01*
D02*
G37*
G36*
X16724D02*
X14256D01*
Y19768D01*
X16724D01*
Y25780D01*
D02*
G37*
G36*
X84268Y23122D02*
X77961D01*
Y19473D01*
X84268D01*
Y23122D01*
D02*
G37*
G36*
X76961D02*
X70653D01*
Y19473D01*
X76961D01*
Y23122D01*
D02*
G37*
G36*
X31610Y17437D02*
X29929D01*
Y13591D01*
X31610D01*
Y17437D01*
D02*
G37*
G36*
X26689D02*
X25008D01*
Y13591D01*
X26689D01*
Y17437D01*
D02*
G37*
G36*
X24008D02*
X22327D01*
Y13591D01*
X24008D01*
Y17437D01*
D02*
G37*
G36*
X28929D02*
X27248D01*
Y13591D01*
X28929D01*
Y17437D01*
D02*
G37*
G36*
X31610Y12591D02*
X29929D01*
Y8744D01*
X31610D01*
Y12591D01*
D02*
G37*
G36*
X28929D02*
X27248D01*
Y8744D01*
X28929D01*
Y12591D01*
D02*
G37*
G36*
X26689D02*
X25008D01*
Y8744D01*
X26689D01*
Y12591D01*
D02*
G37*
G36*
X24008D02*
X22327D01*
Y8744D01*
X24008D01*
Y12591D01*
D02*
G37*
%LPD*%
D11*
X25354Y128386D02*
X34055Y119685D01*
X25354Y128386D02*
Y141181D01*
X21181Y145354D02*
X25354Y141181D01*
X28248Y111122D02*
X32874Y106496D01*
X55315Y154134D02*
X55512Y154331D01*
X55315Y115827D02*
Y154134D01*
Y115827D02*
X57677D01*
X55315Y111221D02*
Y115827D01*
X54134Y110039D02*
X55315Y111221D01*
X54134Y106496D02*
Y110039D01*
X74803Y44094D02*
Y48720D01*
Y44094D02*
X83071D01*
X21654Y60630D02*
Y62992D01*
X44882Y45276D02*
X47244Y42913D01*
X42421Y45276D02*
X44882D01*
X47244Y42913D02*
X73622D01*
X94488Y45276D02*
X102953D01*
X103740Y46063D01*
X42421Y51575D02*
X50394D01*
X34646D02*
X42421D01*
X24409Y57874D02*
X26870D01*
X21654Y60630D02*
X24409Y57874D01*
X48031Y62992D02*
Y62992D01*
Y62992D02*
X51181Y59842D01*
X83071Y44094D02*
X84252Y45276D01*
X91535D01*
X73622Y42913D02*
X74803Y44094D01*
X67716Y48622D02*
X67716Y48622D01*
X60039Y48622D02*
X67716D01*
X57087Y48622D02*
X57087Y48622D01*
X50394Y48622D02*
X57087D01*
X50197Y48425D02*
X50394Y48622D01*
X42421Y48425D02*
X50197D01*
X20472Y45276D02*
X26870D01*
X13780D02*
X16929Y48425D01*
X26870D01*
X78937Y115827D02*
Y118799D01*
X80610Y120472D01*
X83268D01*
X87106Y124311D01*
Y128051D01*
X85728Y129429D02*
X87106Y128051D01*
X81693Y129429D02*
X85728D01*
X75689Y135433D02*
X81693Y129429D01*
X82480Y99016D02*
Y106496D01*
X81890Y98425D02*
X82480Y99016D01*
X81890Y93701D02*
Y98425D01*
X78347Y125984D02*
X82677D01*
X69685Y134646D02*
X78347Y125984D01*
X90748Y115827D02*
Y121457D01*
X96299Y127008D01*
Y136850D01*
X90551Y94882D02*
Y94882D01*
X89705Y95728D02*
X90551Y94882D01*
X91929Y97835D02*
X95276Y94488D01*
X91929Y97835D02*
Y106496D01*
X94291Y99008D02*
Y106496D01*
Y99008D02*
X95268Y98032D01*
X98032D01*
X95276Y94488D02*
X98032D01*
X89705Y95728D02*
Y106496D01*
X87205Y94291D02*
Y106496D01*
Y94291D02*
X87402Y94095D01*
X32677Y110925D02*
X35236Y108366D01*
X36909Y111024D02*
X37598Y110335D01*
X34055Y115827D02*
Y119685D01*
X36417Y115827D02*
Y122539D01*
X29685Y129272D02*
X36417Y122539D01*
X29685Y129272D02*
Y136850D01*
X41142Y115827D02*
Y127461D01*
X38189Y130413D02*
X41142Y127461D01*
X38189Y130413D02*
Y136850D01*
X32776Y106496D02*
X32874D01*
X37598D02*
Y110335D01*
X35236Y106496D02*
Y108366D01*
X42323Y106496D02*
Y107874D01*
X43996Y109547D01*
X46260D01*
X47736Y111024D01*
X45866Y115827D02*
Y150295D01*
X48228Y115827D02*
Y157874D01*
X43740Y162362D02*
X48228Y157874D01*
X42303Y153858D02*
X45866Y150295D01*
X38189Y153858D02*
X42303D01*
X38189Y162362D02*
X43740D01*
D17*
X27362Y106535D02*
D03*
X99803D02*
D03*
D18*
X68307Y106496D02*
D03*
X70669D02*
D03*
X75394D02*
D03*
X73032D02*
D03*
X82480D02*
D03*
X84842D02*
D03*
X80118D02*
D03*
X77756D02*
D03*
X91929D02*
D03*
X94291D02*
D03*
X89567D02*
D03*
X87205D02*
D03*
X65945D02*
D03*
X32874D02*
D03*
X54134D02*
D03*
X56496D02*
D03*
X61221D02*
D03*
X58858D02*
D03*
X44685D02*
D03*
X47047D02*
D03*
X51772D02*
D03*
X49409D02*
D03*
X39961D02*
D03*
X42323D02*
D03*
X37598D02*
D03*
X35236D02*
D03*
X34055Y115827D02*
D03*
X36417D02*
D03*
X41142D02*
D03*
X38780D02*
D03*
X48228D02*
D03*
X50591D02*
D03*
X45866D02*
D03*
X43504D02*
D03*
X57677D02*
D03*
X60039D02*
D03*
X55315D02*
D03*
X52953D02*
D03*
X86024D02*
D03*
X88386D02*
D03*
X93110D02*
D03*
X90748D02*
D03*
X76575D02*
D03*
X78937D02*
D03*
X83661D02*
D03*
X81299D02*
D03*
X71850D02*
D03*
X74213D02*
D03*
X69488D02*
D03*
X67126D02*
D03*
D19*
X28346Y115591D02*
D03*
X98819D02*
D03*
D20*
X63583D02*
D03*
D21*
X57087Y48622D02*
D03*
X60039D02*
D03*
X94488Y45276D02*
D03*
X91535D02*
D03*
D22*
X20472D02*
D03*
Y42323D02*
D03*
X74803Y48720D02*
D03*
Y51673D02*
D03*
X67716Y48622D02*
D03*
Y51575D02*
D03*
X13780Y45276D02*
D03*
Y42323D02*
D03*
X50394Y48622D02*
D03*
Y51575D02*
D03*
D23*
X43504Y77953D02*
D03*
X70669D02*
D03*
D24*
X77461Y23622D02*
D03*
X103642D02*
D03*
D25*
X111221Y46063D02*
D03*
X103740D02*
D03*
X28150Y91339D02*
D03*
X20669D02*
D03*
X28150Y80709D02*
D03*
X20669D02*
D03*
X28150Y70079D02*
D03*
X20669D02*
D03*
D26*
X34350Y13091D02*
D03*
X29429D02*
D03*
X39272D02*
D03*
X24508D02*
D03*
D27*
X17224Y26280D02*
D03*
X46555D02*
D03*
D28*
X100787Y84646D02*
D03*
Y61811D02*
D03*
D32*
X34646Y51575D02*
D03*
D03*
D46*
X26870Y57874D02*
D03*
Y54724D02*
D03*
Y51575D02*
D03*
Y48425D02*
D03*
Y45276D02*
D03*
X42421D02*
D03*
Y48425D02*
D03*
Y51575D02*
D03*
Y54724D02*
D03*
Y57874D02*
D03*
X26870D02*
D03*
Y54724D02*
D03*
Y51575D02*
D03*
Y48425D02*
D03*
Y45276D02*
D03*
X42421D02*
D03*
Y48425D02*
D03*
Y51575D02*
D03*
Y54724D02*
D03*
Y57874D02*
D03*
D47*
Y54724D02*
X47638D01*
X48031Y55118D01*
X22441Y54724D02*
X26870D01*
X60787Y121811D02*
Y125984D01*
D48*
X48031Y55118D02*
X48819Y55905D01*
Y57480D01*
X51181Y59842D01*
X20079Y54724D02*
X22441D01*
X61024Y125984D02*
Y126221D01*
X61417Y126614D01*
Y147244D01*
X68032Y153858D01*
X87795D01*
X12874Y61929D02*
X20079Y54724D01*
X12874Y61929D02*
Y69882D01*
X51181Y59842D02*
X69291Y77953D01*
X34350Y13091D02*
X39272D01*
X101673D01*
X103642Y15059D01*
Y23622D01*
X103740Y23720D01*
Y46063D01*
Y50984D01*
X100787Y53937D02*
X103740Y50984D01*
X100787Y53937D02*
Y61811D01*
X87402Y84646D02*
X100787D01*
X80709Y77953D02*
X87402Y84646D01*
X70669Y77953D02*
X80709D01*
X69291D02*
X70669D01*
X12874Y91929D02*
X13465Y91339D01*
X12677Y92126D02*
X12874Y91929D01*
X13465Y91339D02*
X20669D01*
X12874Y80905D02*
Y91929D01*
Y69882D02*
Y80905D01*
X13071Y80709D01*
X20669D01*
X12874Y69882D02*
X13071Y70079D01*
X20669D01*
X12677Y92126D02*
Y136850D01*
X87795Y153858D02*
X96299D01*
Y145354D02*
Y153858D01*
X55512Y154331D02*
X63543Y162362D01*
X87795D01*
X96299D01*
X104803D01*
X96299Y145354D02*
X96457Y145197D01*
X96299Y136850D02*
X96457Y136693D01*
D49*
X60039Y115827D02*
Y119095D01*
Y111221D02*
Y115827D01*
X61221Y106496D02*
Y110039D01*
X60039Y111221D02*
X61221Y110039D01*
X67126Y115827D02*
Y118701D01*
X65984Y119843D02*
X67126Y118701D01*
X60787Y119843D02*
X65984D01*
X60039Y119095D02*
X60787Y119843D01*
Y121811D01*
D50*
X58858Y100189D02*
Y106496D01*
Y100189D02*
X61016Y98032D01*
X62598D01*
X56496Y99016D02*
Y106496D01*
Y99016D02*
X61024Y94488D01*
D51*
X12677Y136850D02*
Y145354D01*
D52*
X113307Y153858D02*
D03*
Y145354D02*
D03*
Y136850D02*
D03*
X104803Y162362D02*
D03*
Y153858D02*
D03*
Y145354D02*
D03*
Y136850D02*
D03*
X113307Y162362D02*
D03*
X96299D02*
D03*
X87795Y136850D02*
D03*
Y145354D02*
D03*
Y153858D02*
D03*
Y162362D02*
D03*
X96299Y136850D02*
D03*
Y145354D02*
D03*
Y153858D02*
D03*
X21181D02*
D03*
Y145354D02*
D03*
Y136850D02*
D03*
X12677Y162362D02*
D03*
Y153858D02*
D03*
Y145354D02*
D03*
Y136850D02*
D03*
X21181Y162362D02*
D03*
X38189D02*
D03*
X29685Y136850D02*
D03*
Y145354D02*
D03*
Y153858D02*
D03*
Y162362D02*
D03*
X38189Y136850D02*
D03*
Y145354D02*
D03*
Y153858D02*
D03*
D53*
X120768Y155807D02*
D03*
Y140059D02*
D03*
Y124311D02*
D03*
Y108563D02*
D03*
Y92815D02*
D03*
X116831Y84941D02*
D03*
X120768Y77067D02*
D03*
X116831Y69193D02*
D03*
X120768Y61319D02*
D03*
X116831Y53445D02*
D03*
X120768Y45571D02*
D03*
X116831Y37697D02*
D03*
X120768Y29823D02*
D03*
X116831Y21949D02*
D03*
X120768Y14075D02*
D03*
X116831Y6201D02*
D03*
X108957Y147933D02*
D03*
X112894Y77067D02*
D03*
Y61319D02*
D03*
X108957Y53445D02*
D03*
Y37697D02*
D03*
X112894Y29823D02*
D03*
Y14075D02*
D03*
X108957Y6201D02*
D03*
X101083Y132185D02*
D03*
X105020Y124311D02*
D03*
Y108563D02*
D03*
X101083Y100689D02*
D03*
Y6201D02*
D03*
X93209Y132185D02*
D03*
X97146Y124311D02*
D03*
X93209Y53445D02*
D03*
Y37697D02*
D03*
X97146Y29823D02*
D03*
X93209Y21949D02*
D03*
Y6201D02*
D03*
X89272Y77067D02*
D03*
X85335Y69193D02*
D03*
X89272Y61319D02*
D03*
X85335Y53445D02*
D03*
Y37697D02*
D03*
X89272Y29823D02*
D03*
X85335Y6201D02*
D03*
X77461Y84941D02*
D03*
Y69193D02*
D03*
X81398Y61319D02*
D03*
X77461Y37697D02*
D03*
X81398Y29823D02*
D03*
X77461Y6201D02*
D03*
X73524Y92815D02*
D03*
X69587Y69193D02*
D03*
X73524Y61319D02*
D03*
X69587Y37697D02*
D03*
X73524Y29823D02*
D03*
X69587Y6201D02*
D03*
X65650Y140059D02*
D03*
Y124311D02*
D03*
X61713Y84941D02*
D03*
X65650Y61319D02*
D03*
X61713Y53445D02*
D03*
X65650Y45571D02*
D03*
X61713Y37697D02*
D03*
X65650Y29823D02*
D03*
X61713Y21949D02*
D03*
Y6201D02*
D03*
X53839Y163681D02*
D03*
X57776Y140059D02*
D03*
X53839Y100689D02*
D03*
X57776Y92815D02*
D03*
X53839Y84941D02*
D03*
X57776Y77067D02*
D03*
X53839Y69193D02*
D03*
X57776Y61319D02*
D03*
X53839Y53445D02*
D03*
X57776Y45571D02*
D03*
X53839Y37697D02*
D03*
X57776Y29823D02*
D03*
X53839Y21949D02*
D03*
Y6201D02*
D03*
X45965Y163681D02*
D03*
Y100689D02*
D03*
X49902Y92815D02*
D03*
Y45571D02*
D03*
X45965Y37697D02*
D03*
Y6201D02*
D03*
X38091Y100689D02*
D03*
X42028Y92815D02*
D03*
Y61319D02*
D03*
X38091Y37697D02*
D03*
X42028Y29823D02*
D03*
X38091Y21949D02*
D03*
Y6201D02*
D03*
X30217Y100689D02*
D03*
X34154Y92815D02*
D03*
Y77067D02*
D03*
Y61319D02*
D03*
X30217Y37697D02*
D03*
X34154Y29823D02*
D03*
X30217Y21949D02*
D03*
Y6201D02*
D03*
X22343Y116437D02*
D03*
Y100689D02*
D03*
X26280Y61319D02*
D03*
X22343Y37697D02*
D03*
X26280Y29823D02*
D03*
X22343Y21949D02*
D03*
Y6201D02*
D03*
X18406Y124311D02*
D03*
Y108563D02*
D03*
Y61319D02*
D03*
X14469Y53445D02*
D03*
Y37697D02*
D03*
X18406Y14075D02*
D03*
X14469Y6201D02*
D03*
X6595Y163681D02*
D03*
Y147933D02*
D03*
Y132185D02*
D03*
Y116437D02*
D03*
Y100689D02*
D03*
Y84941D02*
D03*
Y69193D02*
D03*
Y53445D02*
D03*
X10532Y45571D02*
D03*
X6595Y37697D02*
D03*
X10532Y29823D02*
D03*
X6595Y21949D02*
D03*
X10532Y14075D02*
D03*
X6595Y6201D02*
D03*
X28248Y111122D02*
D03*
X21654Y62992D02*
D03*
X48031D02*
D03*
X75689Y135433D02*
D03*
X81890Y93701D02*
D03*
X82677Y125984D02*
D03*
X69685Y134646D02*
D03*
X90551Y94882D02*
D03*
X62598Y98032D02*
D03*
X61024Y94488D02*
D03*
X98032Y98032D02*
D03*
Y94488D02*
D03*
X87402Y94095D02*
D03*
X32677Y110925D02*
D03*
X36909Y111024D02*
D03*
X47736Y111024D02*
D03*
M02*
