G04*
G04 #@! TF.GenerationSoftware,Altium Limited,Altium Designer,18.0.7 (293)*
G04*
G04 Layer_Physical_Order=2*
G04 Layer_Color=16711680*
%FSLAX25Y25*%
%MOIN*%
G70*
G01*
G75*
%ADD11C,0.01181*%
%ADD21R,0.01968X0.02362*%
%ADD50C,0.01500*%
%ADD52C,0.05906*%
%ADD53C,0.02362*%
G36*
X123031Y2953D02*
X2953D01*
Y174213D01*
X123031D01*
Y2953D01*
D02*
G37*
%LPC*%
G36*
X30185Y166283D02*
Y162862D01*
X33606D01*
X33536Y163394D01*
X33138Y164356D01*
X32504Y165181D01*
X31679Y165815D01*
X30717Y166213D01*
X30185Y166283D01*
D02*
G37*
G36*
X13177D02*
Y162862D01*
X16598D01*
X16528Y163394D01*
X16130Y164356D01*
X15496Y165181D01*
X14671Y165815D01*
X13709Y166213D01*
X13177Y166283D01*
D02*
G37*
G36*
X12177Y166283D02*
X11645Y166213D01*
X10684Y165815D01*
X9858Y165181D01*
X9224Y164356D01*
X8826Y163394D01*
X8756Y162862D01*
X12177D01*
Y166283D01*
D02*
G37*
G36*
X29185D02*
X28653Y166213D01*
X27692Y165815D01*
X26866Y165181D01*
X26232Y164356D01*
X25834Y163394D01*
X25764Y162862D01*
X29185D01*
Y166283D01*
D02*
G37*
G36*
X108268Y169748D02*
X79528D01*
X79051Y169654D01*
X78648Y169384D01*
X68411Y159148D01*
X68142Y158744D01*
X68047Y158268D01*
Y135454D01*
X67979Y135352D01*
X67839Y134646D01*
X67979Y133939D01*
X68379Y133340D01*
X68978Y132940D01*
X69685Y132799D01*
X70392Y132940D01*
X70991Y133340D01*
X71391Y133939D01*
X71531Y134646D01*
X71391Y135352D01*
X70991Y135951D01*
X70536Y136255D01*
Y157752D01*
X73962Y161179D01*
X74002Y161174D01*
X74445Y160954D01*
Y136780D01*
X74383Y136739D01*
X73983Y136140D01*
X73843Y135433D01*
X73983Y134726D01*
X74383Y134127D01*
X74982Y133727D01*
X75689Y133587D01*
X76396Y133727D01*
X76995Y134127D01*
X77395Y134726D01*
X77535Y135433D01*
X77395Y136140D01*
X76995Y136739D01*
X76933Y136780D01*
Y160607D01*
X81775Y165448D01*
X85154D01*
X85315Y164975D01*
X85240Y164917D01*
X84666Y164169D01*
X84305Y163297D01*
X84182Y162362D01*
X84305Y161427D01*
X84666Y160555D01*
X85240Y159807D01*
X85988Y159233D01*
X86860Y158872D01*
X87795Y158749D01*
X88731Y158872D01*
X89602Y159233D01*
X90351Y159807D01*
X90925Y160555D01*
X91286Y161427D01*
X91409Y162362D01*
X91286Y163297D01*
X90925Y164169D01*
X90351Y164917D01*
X90275Y164975D01*
X90436Y165448D01*
X93659D01*
X93819Y164975D01*
X93744Y164917D01*
X93170Y164169D01*
X92809Y163297D01*
X92686Y162362D01*
X92809Y161427D01*
X93170Y160555D01*
X93744Y159807D01*
X94492Y159233D01*
X95364Y158872D01*
X96299Y158749D01*
X97234Y158872D01*
X98106Y159233D01*
X98854Y159807D01*
X99429Y160555D01*
X99790Y161427D01*
X99913Y162362D01*
X99790Y163297D01*
X99429Y164169D01*
X98854Y164917D01*
X98779Y164975D01*
X98940Y165448D01*
X102162D01*
X102323Y164975D01*
X102248Y164917D01*
X101674Y164169D01*
X101313Y163297D01*
X101190Y162362D01*
X101313Y161427D01*
X101674Y160555D01*
X102248Y159807D01*
X102996Y159233D01*
X103868Y158872D01*
X104803Y158749D01*
X105738Y158872D01*
X106610Y159233D01*
X107311Y159771D01*
X107710Y159688D01*
X107811Y159653D01*
Y158110D01*
X107905Y157634D01*
X108175Y157230D01*
X110050Y155356D01*
X109817Y154794D01*
X109694Y153858D01*
X109817Y152923D01*
X110178Y152051D01*
X110752Y151303D01*
X111500Y150729D01*
X112372Y150368D01*
X113307Y150245D01*
X114242Y150368D01*
X115114Y150729D01*
X115862Y151303D01*
X116437Y152051D01*
X116797Y152923D01*
X116921Y153858D01*
X116797Y154794D01*
X116437Y155665D01*
X115862Y156413D01*
X115114Y156988D01*
X114242Y157349D01*
X113307Y157472D01*
X112372Y157349D01*
X111809Y157116D01*
X110300Y158626D01*
Y159653D01*
X110400Y159688D01*
X110800Y159771D01*
X111500Y159233D01*
X112372Y158872D01*
X113307Y158749D01*
X114242Y158872D01*
X115114Y159233D01*
X115862Y159807D01*
X116437Y160555D01*
X116797Y161427D01*
X116921Y162362D01*
X116797Y163297D01*
X116437Y164169D01*
X115862Y164917D01*
X115114Y165492D01*
X114242Y165853D01*
X113307Y165976D01*
X112643Y165888D01*
X109148Y169384D01*
X108744Y169654D01*
X108268Y169748D01*
D02*
G37*
G36*
X38189Y165976D02*
X37254Y165853D01*
X36382Y165492D01*
X35634Y164917D01*
X35059Y164169D01*
X34699Y163297D01*
X34575Y162362D01*
X34699Y161427D01*
X35059Y160555D01*
X35634Y159807D01*
X36382Y159233D01*
X37254Y158872D01*
X38189Y158749D01*
X39124Y158872D01*
X39996Y159233D01*
X40744Y159807D01*
X41318Y160555D01*
X41679Y161427D01*
X41803Y162362D01*
X41679Y163297D01*
X41318Y164169D01*
X40744Y164917D01*
X39996Y165492D01*
X39124Y165853D01*
X38189Y165976D01*
D02*
G37*
G36*
X21181D02*
X20246Y165853D01*
X19374Y165492D01*
X18626Y164917D01*
X18052Y164169D01*
X17691Y163297D01*
X17568Y162362D01*
X17691Y161427D01*
X18052Y160555D01*
X18626Y159807D01*
X19374Y159233D01*
X20246Y158872D01*
X21181Y158749D01*
X22116Y158872D01*
X22988Y159233D01*
X23736Y159807D01*
X24311Y160555D01*
X24672Y161427D01*
X24795Y162362D01*
X24672Y163297D01*
X24311Y164169D01*
X23736Y164917D01*
X22988Y165492D01*
X22116Y165853D01*
X21181Y165976D01*
D02*
G37*
G36*
X33606Y161862D02*
X30185D01*
Y158441D01*
X30717Y158511D01*
X31679Y158909D01*
X32504Y159543D01*
X33138Y160369D01*
X33536Y161330D01*
X33606Y161862D01*
D02*
G37*
G36*
X16598D02*
X13177D01*
Y158441D01*
X13709Y158511D01*
X14671Y158909D01*
X15496Y159543D01*
X16130Y160369D01*
X16528Y161330D01*
X16598Y161862D01*
D02*
G37*
G36*
X12177D02*
X8756D01*
X8826Y161330D01*
X9224Y160369D01*
X9858Y159543D01*
X10684Y158909D01*
X11645Y158511D01*
X12177Y158441D01*
Y161862D01*
D02*
G37*
G36*
X29185D02*
X25764D01*
X25834Y161330D01*
X26232Y160369D01*
X26866Y159543D01*
X27692Y158909D01*
X28653Y158511D01*
X29185Y158441D01*
Y161862D01*
D02*
G37*
G36*
X30185Y157779D02*
Y154358D01*
X33606D01*
X33536Y154890D01*
X33138Y155852D01*
X32504Y156677D01*
X31679Y157311D01*
X30717Y157709D01*
X30185Y157779D01*
D02*
G37*
G36*
X13177D02*
Y154358D01*
X16598D01*
X16528Y154890D01*
X16130Y155852D01*
X15496Y156677D01*
X14671Y157311D01*
X13709Y157709D01*
X13177Y157779D01*
D02*
G37*
G36*
X105303Y157779D02*
Y154358D01*
X108724D01*
X108654Y154890D01*
X108256Y155852D01*
X107622Y156677D01*
X106797Y157311D01*
X105835Y157709D01*
X105303Y157779D01*
D02*
G37*
G36*
X104303Y157779D02*
X103771Y157709D01*
X102810Y157311D01*
X101984Y156677D01*
X101350Y155852D01*
X100952Y154890D01*
X100882Y154358D01*
X104303D01*
Y157779D01*
D02*
G37*
G36*
X12177Y157779D02*
X11645Y157709D01*
X10684Y157311D01*
X9858Y156677D01*
X9224Y155852D01*
X8826Y154890D01*
X8756Y154358D01*
X12177D01*
Y157779D01*
D02*
G37*
G36*
X29185D02*
X28653Y157709D01*
X27692Y157311D01*
X26866Y156677D01*
X26232Y155852D01*
X25834Y154890D01*
X25764Y154358D01*
X29185D01*
Y157779D01*
D02*
G37*
G36*
X96299Y157472D02*
X95364Y157349D01*
X94492Y156988D01*
X93744Y156413D01*
X93170Y155665D01*
X92809Y154794D01*
X92686Y153858D01*
X92809Y152923D01*
X93170Y152051D01*
X93744Y151303D01*
X94492Y150729D01*
X95364Y150368D01*
X96299Y150245D01*
X97234Y150368D01*
X98106Y150729D01*
X98854Y151303D01*
X99429Y152051D01*
X99790Y152923D01*
X99913Y153858D01*
X99790Y154794D01*
X99429Y155665D01*
X98854Y156413D01*
X98106Y156988D01*
X97234Y157349D01*
X96299Y157472D01*
D02*
G37*
G36*
X87795D02*
X86860Y157349D01*
X85988Y156988D01*
X85240Y156413D01*
X84666Y155665D01*
X84305Y154794D01*
X84182Y153858D01*
X84305Y152923D01*
X84666Y152051D01*
X85240Y151303D01*
X85988Y150729D01*
X86860Y150368D01*
X87795Y150245D01*
X88731Y150368D01*
X89602Y150729D01*
X90351Y151303D01*
X90925Y152051D01*
X91286Y152923D01*
X91409Y153858D01*
X91286Y154794D01*
X90925Y155665D01*
X90351Y156413D01*
X89602Y156988D01*
X88731Y157349D01*
X87795Y157472D01*
D02*
G37*
G36*
X38189D02*
X37254Y157349D01*
X36382Y156988D01*
X35634Y156413D01*
X35059Y155665D01*
X34699Y154794D01*
X34575Y153858D01*
X34699Y152923D01*
X35059Y152051D01*
X35634Y151303D01*
X36382Y150729D01*
X37254Y150368D01*
X38189Y150245D01*
X39124Y150368D01*
X39996Y150729D01*
X40744Y151303D01*
X41318Y152051D01*
X41679Y152923D01*
X41803Y153858D01*
X41679Y154794D01*
X41318Y155665D01*
X40744Y156413D01*
X39996Y156988D01*
X39124Y157349D01*
X38189Y157472D01*
D02*
G37*
G36*
X33606Y153358D02*
X30185D01*
Y149937D01*
X30717Y150007D01*
X31679Y150406D01*
X32504Y151039D01*
X33138Y151865D01*
X33536Y152826D01*
X33606Y153358D01*
D02*
G37*
G36*
X16598D02*
X13177D01*
Y149937D01*
X13709Y150007D01*
X14671Y150406D01*
X15496Y151039D01*
X16130Y151865D01*
X16528Y152826D01*
X16598Y153358D01*
D02*
G37*
G36*
X104303D02*
X100882D01*
X100952Y152826D01*
X101350Y151865D01*
X101984Y151039D01*
X102810Y150406D01*
X103771Y150007D01*
X104303Y149937D01*
Y153358D01*
D02*
G37*
G36*
X108724D02*
X105303D01*
Y149937D01*
X105835Y150007D01*
X106797Y150406D01*
X107622Y151039D01*
X108256Y151865D01*
X108654Y152826D01*
X108724Y153358D01*
D02*
G37*
G36*
X12177D02*
X8756D01*
X8826Y152826D01*
X9224Y151865D01*
X9858Y151039D01*
X10684Y150406D01*
X11645Y150007D01*
X12177Y149937D01*
Y153358D01*
D02*
G37*
G36*
X29185D02*
X25764D01*
X25834Y152826D01*
X26232Y151865D01*
X26866Y151039D01*
X27692Y150406D01*
X28653Y150007D01*
X29185Y149937D01*
Y153358D01*
D02*
G37*
G36*
X21181Y157472D02*
X20246Y157349D01*
X19374Y156988D01*
X18626Y156413D01*
X18052Y155665D01*
X17691Y154794D01*
X17568Y153858D01*
X17691Y152923D01*
X18052Y152051D01*
X18626Y151303D01*
X19374Y150729D01*
X20246Y150368D01*
X21181Y150245D01*
X22116Y150368D01*
X22679Y150601D01*
X24267Y149012D01*
Y147995D01*
X23794Y147834D01*
X23736Y147909D01*
X22988Y148484D01*
X22116Y148845D01*
X21181Y148968D01*
X20246Y148845D01*
X19374Y148484D01*
X18626Y147909D01*
X18052Y147161D01*
X17691Y146290D01*
X17568Y145354D01*
X17691Y144419D01*
X18052Y143547D01*
X18626Y142799D01*
X19374Y142225D01*
X20246Y141864D01*
X21181Y141741D01*
X22116Y141864D01*
X22988Y142225D01*
X23736Y142799D01*
X23794Y142874D01*
X24267Y142714D01*
Y139491D01*
X23794Y139330D01*
X23736Y139406D01*
X22988Y139980D01*
X22116Y140341D01*
X21181Y140464D01*
X20246Y140341D01*
X19374Y139980D01*
X18626Y139406D01*
X18052Y138657D01*
X17691Y137786D01*
X17568Y136850D01*
X17691Y135915D01*
X18052Y135044D01*
X18626Y134295D01*
X19374Y133721D01*
X19937Y133488D01*
Y123406D01*
X20031Y122929D01*
X20301Y122526D01*
X27004Y115823D01*
Y112469D01*
X26942Y112428D01*
X26542Y111829D01*
X26401Y111122D01*
X26542Y110415D01*
X26942Y109816D01*
X27541Y109416D01*
X28248Y109275D01*
X28955Y109416D01*
X29554Y109816D01*
X29954Y110415D01*
X30095Y111122D01*
X29954Y111829D01*
X29554Y112428D01*
X29492Y112469D01*
Y116339D01*
X29398Y116815D01*
X29128Y117218D01*
X22425Y123921D01*
Y133488D01*
X22988Y133721D01*
X23736Y134295D01*
X23794Y134370D01*
X24267Y134210D01*
Y126161D01*
X24362Y125685D01*
X24632Y125282D01*
X31433Y118481D01*
Y112272D01*
X31372Y112231D01*
X30971Y111632D01*
X30831Y110925D01*
X30971Y110219D01*
X31372Y109619D01*
X31971Y109219D01*
X32677Y109079D01*
X33384Y109219D01*
X33983Y109619D01*
X34383Y110219D01*
X34524Y110925D01*
X34383Y111632D01*
X33983Y112231D01*
X33922Y112272D01*
Y118996D01*
X33827Y119472D01*
X33557Y119876D01*
X26756Y126677D01*
Y134019D01*
X27256Y134198D01*
X27878Y133721D01*
X28750Y133360D01*
X29685Y133237D01*
X30620Y133360D01*
X31492Y133721D01*
X32240Y134295D01*
X32298Y134370D01*
X32771Y134210D01*
Y123169D01*
X32866Y122693D01*
X33136Y122289D01*
X35665Y119760D01*
Y112370D01*
X35604Y112329D01*
X35203Y111730D01*
X35063Y111024D01*
X35203Y110317D01*
X35604Y109718D01*
X36203Y109318D01*
X36909Y109177D01*
X37616Y109318D01*
X38215Y109718D01*
X38615Y110317D01*
X38756Y111024D01*
X38615Y111730D01*
X38215Y112329D01*
X38154Y112370D01*
Y120276D01*
X38059Y120752D01*
X37789Y121156D01*
X35260Y123685D01*
Y134019D01*
X35760Y134198D01*
X36382Y133721D01*
X37254Y133360D01*
X38189Y133237D01*
X39124Y133360D01*
X39996Y133721D01*
X40744Y134295D01*
X41318Y135044D01*
X41679Y135915D01*
X41803Y136850D01*
X41679Y137786D01*
X41318Y138657D01*
X40744Y139406D01*
X39996Y139980D01*
X39124Y140341D01*
X38189Y140464D01*
X37254Y140341D01*
X36382Y139980D01*
X35760Y139503D01*
X35260Y139682D01*
Y141024D01*
X35165Y141500D01*
X34896Y141903D01*
X32943Y143857D01*
X33176Y144419D01*
X33299Y145354D01*
X33176Y146290D01*
X32814Y147161D01*
X32240Y147909D01*
X31492Y148484D01*
X30620Y148845D01*
X29685Y148968D01*
X28750Y148845D01*
X27878Y148484D01*
X27256Y148006D01*
X26756Y148186D01*
Y149528D01*
X26662Y150004D01*
X26392Y150408D01*
X24439Y152361D01*
X24672Y152923D01*
X24795Y153858D01*
X24672Y154794D01*
X24311Y155665D01*
X23736Y156413D01*
X22988Y156988D01*
X22116Y157349D01*
X21181Y157472D01*
D02*
G37*
G36*
X96299Y148968D02*
X95364Y148845D01*
X94492Y148484D01*
X93744Y147909D01*
X93170Y147161D01*
X92809Y146290D01*
X92686Y145354D01*
X92809Y144419D01*
X93170Y143547D01*
X93744Y142799D01*
X94492Y142225D01*
X95364Y141864D01*
X96299Y141741D01*
X97234Y141864D01*
X98106Y142225D01*
X98854Y142799D01*
X99429Y143547D01*
X99790Y144419D01*
X99913Y145354D01*
X99790Y146290D01*
X99429Y147161D01*
X98854Y147909D01*
X98106Y148484D01*
X97234Y148845D01*
X96299Y148968D01*
D02*
G37*
G36*
X87795D02*
X86860Y148845D01*
X85988Y148484D01*
X85240Y147909D01*
X84666Y147161D01*
X84305Y146290D01*
X84182Y145354D01*
X84305Y144419D01*
X84470Y144019D01*
X81682Y141231D01*
X81377Y140775D01*
X81270Y140236D01*
Y135851D01*
X69478Y124058D01*
X69173Y123601D01*
X69065Y123063D01*
Y100575D01*
X67929Y99439D01*
X63753D01*
X63305Y99737D01*
X62598Y99878D01*
X61892Y99737D01*
X61293Y99337D01*
X60892Y98738D01*
X60752Y98032D01*
X60892Y97325D01*
X61243Y96801D01*
X61121Y96493D01*
X61001Y96330D01*
X60317Y96194D01*
X59718Y95794D01*
X59318Y95195D01*
X59177Y94488D01*
X59318Y93782D01*
X59718Y93182D01*
X60317Y92782D01*
X61024Y92642D01*
X61730Y92782D01*
X62178Y93081D01*
X69685D01*
X70223Y93188D01*
X70680Y93493D01*
X75404Y98218D01*
X75709Y98674D01*
X75816Y99213D01*
Y122626D01*
X86641Y133450D01*
X86860Y133360D01*
X87795Y133237D01*
X88731Y133360D01*
X89602Y133721D01*
X90351Y134295D01*
X90925Y135044D01*
X91286Y135915D01*
X91409Y136850D01*
X91286Y137786D01*
X90925Y138657D01*
X90351Y139406D01*
X89602Y139980D01*
X88731Y140341D01*
X87795Y140464D01*
X86860Y140341D01*
X85988Y139980D01*
X85240Y139406D01*
X84666Y138657D01*
X84584Y138460D01*
X84084Y138559D01*
Y139653D01*
X86460Y142030D01*
X86860Y141864D01*
X87795Y141741D01*
X88731Y141864D01*
X89602Y142225D01*
X90351Y142799D01*
X90925Y143547D01*
X91286Y144419D01*
X91409Y145354D01*
X91286Y146290D01*
X90925Y147161D01*
X90351Y147909D01*
X89602Y148484D01*
X88731Y148845D01*
X87795Y148968D01*
D02*
G37*
G36*
X12677D02*
X11742Y148845D01*
X10870Y148484D01*
X10122Y147909D01*
X9548Y147161D01*
X9187Y146290D01*
X9064Y145354D01*
X9187Y144419D01*
X9548Y143547D01*
X10122Y142799D01*
X10870Y142225D01*
X11742Y141864D01*
X12677Y141741D01*
X13612Y141864D01*
X14484Y142225D01*
X15232Y142799D01*
X15807Y143547D01*
X16168Y144419D01*
X16291Y145354D01*
X16168Y146290D01*
X15807Y147161D01*
X15232Y147909D01*
X14484Y148484D01*
X13612Y148845D01*
X12677Y148968D01*
D02*
G37*
G36*
X113307D02*
X112372Y148845D01*
X111500Y148484D01*
X110752Y147909D01*
X110178Y147161D01*
X109817Y146290D01*
X109694Y145354D01*
X109817Y144419D01*
X110178Y143547D01*
X110752Y142799D01*
X111500Y142225D01*
X112372Y141864D01*
X113307Y141741D01*
X114242Y141864D01*
X114805Y142097D01*
X116866Y140036D01*
Y138881D01*
X116744Y138818D01*
X116366Y138749D01*
X115862Y139406D01*
X115114Y139980D01*
X114242Y140341D01*
X113307Y140464D01*
X112372Y140341D01*
X111500Y139980D01*
X110800Y139442D01*
X110400Y139525D01*
X110300Y139559D01*
Y141102D01*
X110205Y141579D01*
X109935Y141982D01*
X108061Y143857D01*
X108294Y144419D01*
X108417Y145354D01*
X108294Y146290D01*
X107933Y147161D01*
X107358Y147909D01*
X106610Y148484D01*
X105738Y148845D01*
X104803Y148968D01*
X103868Y148845D01*
X102996Y148484D01*
X102248Y147909D01*
X101674Y147161D01*
X101313Y146290D01*
X101190Y145354D01*
X101313Y144419D01*
X101674Y143547D01*
X102248Y142799D01*
X102996Y142225D01*
X103868Y141864D01*
X104803Y141741D01*
X105738Y141864D01*
X106301Y142097D01*
X107811Y140587D01*
Y139559D01*
X107710Y139525D01*
X107311Y139442D01*
X106610Y139980D01*
X105738Y140341D01*
X104803Y140464D01*
X103868Y140341D01*
X102996Y139980D01*
X102248Y139406D01*
X101674Y138657D01*
X101313Y137786D01*
X101190Y136850D01*
X101313Y135915D01*
X101674Y135044D01*
X102248Y134295D01*
X102996Y133721D01*
X103868Y133360D01*
X104803Y133237D01*
X105342Y133308D01*
X105842Y132887D01*
Y129134D01*
X105937Y128658D01*
X106207Y128254D01*
X108854Y125607D01*
Y102732D01*
X105398Y99276D01*
X99378D01*
X99337Y99337D01*
X98738Y99737D01*
X98032Y99878D01*
X97325Y99737D01*
X96726Y99337D01*
X96326Y98738D01*
X96185Y98032D01*
X96326Y97325D01*
X96726Y96726D01*
X96973Y96561D01*
Y95959D01*
X96726Y95794D01*
X96326Y95195D01*
X96185Y94488D01*
X96326Y93782D01*
X96726Y93182D01*
X97325Y92782D01*
X98032Y92642D01*
X98738Y92782D01*
X99337Y93182D01*
X99378Y93244D01*
X105905D01*
X106382Y93339D01*
X106785Y93608D01*
X113478Y100301D01*
X113748Y100705D01*
X113843Y101181D01*
Y127165D01*
X113748Y127642D01*
X113478Y128045D01*
X110300Y131224D01*
Y134142D01*
X110400Y134176D01*
X110800Y134259D01*
X111500Y133721D01*
X112372Y133360D01*
X113307Y133237D01*
X114242Y133360D01*
X114397Y133424D01*
X114897Y133090D01*
Y100114D01*
X106717Y91933D01*
X95259D01*
X92383Y94810D01*
X92398Y94882D01*
X92257Y95588D01*
X91857Y96188D01*
X91258Y96588D01*
X90551Y96728D01*
X89845Y96588D01*
X89245Y96188D01*
X88972Y95779D01*
X88840Y95589D01*
X88346Y95641D01*
X88108Y95800D01*
X87402Y95941D01*
X86695Y95800D01*
X86096Y95400D01*
X85696Y94801D01*
X85555Y94095D01*
X85696Y93388D01*
X86096Y92789D01*
X86695Y92388D01*
X87402Y92248D01*
X87474Y92262D01*
X92427Y87309D01*
X92831Y87039D01*
X93307Y86945D01*
X108268D01*
X108744Y87039D01*
X109148Y87309D01*
X118990Y97152D01*
X119260Y97555D01*
X119355Y98032D01*
Y140551D01*
X119260Y141027D01*
X118990Y141431D01*
X116565Y143857D01*
X116797Y144419D01*
X116921Y145354D01*
X116797Y146290D01*
X116437Y147161D01*
X115862Y147909D01*
X115114Y148484D01*
X114242Y148845D01*
X113307Y148968D01*
D02*
G37*
G36*
X96299Y140464D02*
X95364Y140341D01*
X94492Y139980D01*
X93744Y139406D01*
X93170Y138657D01*
X92809Y137786D01*
X92686Y136850D01*
X92809Y135915D01*
X93170Y135044D01*
X93744Y134295D01*
X94492Y133721D01*
X95364Y133360D01*
X96299Y133237D01*
X97234Y133360D01*
X98106Y133721D01*
X98854Y134295D01*
X99429Y135044D01*
X99790Y135915D01*
X99913Y136850D01*
X99790Y137786D01*
X99429Y138657D01*
X98854Y139406D01*
X98106Y139980D01*
X97234Y140341D01*
X96299Y140464D01*
D02*
G37*
G36*
X12677D02*
X11742Y140341D01*
X10870Y139980D01*
X10122Y139406D01*
X9548Y138657D01*
X9187Y137786D01*
X9064Y136850D01*
X9187Y135915D01*
X9548Y135044D01*
X10122Y134295D01*
X10870Y133721D01*
X11742Y133360D01*
X12677Y133237D01*
X13612Y133360D01*
X14484Y133721D01*
X15232Y134295D01*
X15807Y135044D01*
X16168Y135915D01*
X16291Y136850D01*
X16168Y137786D01*
X15807Y138657D01*
X15232Y139406D01*
X14484Y139980D01*
X13612Y140341D01*
X12677Y140464D01*
D02*
G37*
G36*
X82677Y127831D02*
X81971Y127690D01*
X81371Y127290D01*
X80971Y126691D01*
X80831Y125984D01*
X80845Y125912D01*
X77466Y122533D01*
X77197Y122130D01*
X77102Y121653D01*
Y95669D01*
X77197Y95193D01*
X77466Y94789D01*
X79435Y92821D01*
X79839Y92551D01*
X80315Y92456D01*
X80543D01*
X80584Y92395D01*
X81183Y91995D01*
X81890Y91854D01*
X82596Y91995D01*
X83195Y92395D01*
X83596Y92994D01*
X83736Y93701D01*
X83596Y94407D01*
X83195Y95007D01*
X82596Y95407D01*
X81890Y95547D01*
X81183Y95407D01*
X80695Y95081D01*
X79591Y96185D01*
Y121138D01*
X82605Y124152D01*
X82677Y124138D01*
X83384Y124278D01*
X83983Y124679D01*
X84383Y125278D01*
X84524Y125984D01*
X84383Y126691D01*
X83983Y127290D01*
X83384Y127690D01*
X82677Y127831D01*
D02*
G37*
G36*
X38189Y148968D02*
X37254Y148845D01*
X36382Y148484D01*
X35634Y147909D01*
X35059Y147161D01*
X34699Y146290D01*
X34575Y145354D01*
X34699Y144419D01*
X35059Y143547D01*
X35634Y142799D01*
X36382Y142225D01*
X37254Y141864D01*
X38189Y141741D01*
X39124Y141864D01*
X39687Y142097D01*
X46492Y135292D01*
Y112370D01*
X46431Y112329D01*
X46030Y111730D01*
X45890Y111024D01*
X46030Y110317D01*
X46431Y109718D01*
X47030Y109318D01*
X47736Y109177D01*
X48443Y109318D01*
X49042Y109718D01*
X49442Y110317D01*
X49583Y111024D01*
X49442Y111730D01*
X49042Y112329D01*
X48981Y112370D01*
Y135807D01*
X48886Y136283D01*
X48616Y136687D01*
X41447Y143857D01*
X41679Y144419D01*
X41803Y145354D01*
X41679Y146290D01*
X41318Y147161D01*
X40744Y147909D01*
X39996Y148484D01*
X39124Y148845D01*
X38189Y148968D01*
D02*
G37*
G36*
X38228Y69921D02*
X32047D01*
Y69355D01*
X26772D01*
X26295Y69260D01*
X25892Y68990D01*
X21726Y64824D01*
X21654Y64839D01*
X20947Y64698D01*
X20348Y64298D01*
X19948Y63699D01*
X19807Y62992D01*
X19948Y62286D01*
X20348Y61686D01*
X20947Y61286D01*
X21654Y61146D01*
X22360Y61286D01*
X22959Y61686D01*
X23359Y62286D01*
X23500Y62992D01*
X23486Y63064D01*
X27287Y66866D01*
X32047D01*
Y66299D01*
X38228D01*
Y66866D01*
X42398D01*
X46199Y63064D01*
X46185Y62992D01*
X46326Y62286D01*
X46726Y61686D01*
X47325Y61286D01*
X48031Y61146D01*
X48738Y61286D01*
X49337Y61686D01*
X49737Y62286D01*
X49878Y62992D01*
X49737Y63699D01*
X49337Y64298D01*
X48738Y64698D01*
X48031Y64839D01*
X47959Y64824D01*
X43793Y68990D01*
X43390Y69260D01*
X42913Y69355D01*
X38228D01*
Y69921D01*
D02*
G37*
%LPD*%
G36*
X73002Y122896D02*
Y99795D01*
X69102Y95895D01*
X63778D01*
X63579Y96395D01*
X63811Y96624D01*
X68512D01*
X69050Y96732D01*
X69507Y97037D01*
X71467Y98997D01*
X71772Y99454D01*
X71879Y99992D01*
Y122480D01*
X72502Y123103D01*
X73002Y122896D01*
D02*
G37*
D11*
X34016Y123169D02*
Y141024D01*
X29685Y145354D02*
X34016Y141024D01*
X47736Y111024D02*
Y135807D01*
X38189Y145354D02*
X47736Y135807D01*
X25512Y126161D02*
Y149528D01*
X21181Y153858D02*
X25512Y149528D01*
X28248Y111122D02*
Y116339D01*
X107126Y166693D02*
X109055Y164764D01*
X81260Y166693D02*
X107126D01*
X75689Y161122D02*
X81260Y166693D01*
X75689Y135433D02*
Y161122D01*
X21654Y62992D02*
X26772Y68110D01*
X33661D01*
X36614D02*
X42913D01*
X48031Y62992D01*
X109055Y158110D02*
Y164764D01*
Y158110D02*
X113307Y153858D01*
X80315Y93701D02*
X81890D01*
X78347Y95669D02*
X80315Y93701D01*
X78347Y95669D02*
Y121653D01*
X82677Y125984D01*
X69291Y135039D02*
X69685Y134646D01*
X69291Y135039D02*
Y158268D01*
X79528Y168504D01*
X108268D01*
X113307Y163465D01*
Y162362D02*
Y163465D01*
X90551Y94882D02*
X90551D01*
X94744Y90689D01*
X113307Y136850D02*
X116142Y134016D01*
X118110Y98032D02*
Y140551D01*
X109055Y130709D02*
X112598Y127165D01*
X109055Y130709D02*
Y141102D01*
X107087Y129134D02*
Y134567D01*
X104803Y136850D02*
X107087Y134567D01*
X98032Y98032D02*
X105913D01*
X110098Y102217D01*
Y126122D01*
X107087Y129134D02*
X110098Y126122D01*
X98032Y94488D02*
X105905D01*
X112598Y101181D01*
Y127165D01*
X104803Y145354D02*
X109055Y141102D01*
X94744Y90689D02*
X107232D01*
X116142Y99598D01*
Y134016D01*
X87402Y94095D02*
X93307Y88189D01*
X108268D01*
X118110Y98032D01*
X113307Y145354D02*
X118110Y140551D01*
X32677Y110925D02*
Y118996D01*
X36909Y111024D02*
Y120276D01*
X21181Y123406D02*
X28248Y116339D01*
X21181Y123406D02*
Y136850D01*
X34016Y123169D02*
X36909Y120276D01*
X25512Y126161D02*
X32677Y118996D01*
D21*
X36614Y68110D02*
D03*
X33661D02*
D03*
D50*
X87795Y136594D02*
Y136850D01*
X74410Y123208D02*
X87795Y136594D01*
X74410Y99213D02*
Y123208D01*
X69685Y94488D02*
X74410Y99213D01*
X62598Y98032D02*
X68512D01*
X70472Y99992D01*
Y123063D01*
X82677Y135268D01*
Y140236D01*
X87795Y145354D01*
X61024Y94488D02*
X69685D01*
D52*
X113307Y153858D02*
D03*
Y145354D02*
D03*
Y136850D02*
D03*
X104803Y162362D02*
D03*
Y153858D02*
D03*
Y145354D02*
D03*
Y136850D02*
D03*
X113307Y162362D02*
D03*
X96299D02*
D03*
X87795Y136850D02*
D03*
Y145354D02*
D03*
Y153858D02*
D03*
Y162362D02*
D03*
X96299Y136850D02*
D03*
Y145354D02*
D03*
Y153858D02*
D03*
X21181D02*
D03*
Y145354D02*
D03*
Y136850D02*
D03*
X12677Y162362D02*
D03*
Y153858D02*
D03*
Y145354D02*
D03*
Y136850D02*
D03*
X21181Y162362D02*
D03*
X38189D02*
D03*
X29685Y136850D02*
D03*
Y145354D02*
D03*
Y153858D02*
D03*
Y162362D02*
D03*
X38189Y136850D02*
D03*
Y145354D02*
D03*
Y153858D02*
D03*
D53*
X120768Y155807D02*
D03*
Y140059D02*
D03*
Y124311D02*
D03*
Y108563D02*
D03*
Y92815D02*
D03*
X116831Y84941D02*
D03*
X120768Y77067D02*
D03*
X116831Y69193D02*
D03*
X120768Y61319D02*
D03*
X116831Y53445D02*
D03*
X120768Y45571D02*
D03*
X116831Y37697D02*
D03*
X120768Y29823D02*
D03*
X116831Y21949D02*
D03*
X120768Y14075D02*
D03*
X116831Y6201D02*
D03*
X108957Y147933D02*
D03*
X112894Y77067D02*
D03*
Y61319D02*
D03*
X108957Y53445D02*
D03*
Y37697D02*
D03*
X112894Y29823D02*
D03*
Y14075D02*
D03*
X108957Y6201D02*
D03*
X101083Y132185D02*
D03*
X105020Y124311D02*
D03*
Y108563D02*
D03*
X101083Y100689D02*
D03*
Y6201D02*
D03*
X93209Y132185D02*
D03*
X97146Y124311D02*
D03*
X93209Y53445D02*
D03*
Y37697D02*
D03*
X97146Y29823D02*
D03*
X93209Y21949D02*
D03*
Y6201D02*
D03*
X89272Y77067D02*
D03*
X85335Y69193D02*
D03*
X89272Y61319D02*
D03*
X85335Y53445D02*
D03*
Y37697D02*
D03*
X89272Y29823D02*
D03*
X85335Y6201D02*
D03*
X77461Y84941D02*
D03*
Y69193D02*
D03*
X81398Y61319D02*
D03*
X77461Y37697D02*
D03*
X81398Y29823D02*
D03*
X77461Y6201D02*
D03*
X73524Y92815D02*
D03*
X69587Y69193D02*
D03*
X73524Y61319D02*
D03*
X69587Y37697D02*
D03*
X73524Y29823D02*
D03*
X69587Y6201D02*
D03*
X65650Y140059D02*
D03*
Y124311D02*
D03*
X61713Y84941D02*
D03*
X65650Y61319D02*
D03*
X61713Y53445D02*
D03*
X65650Y45571D02*
D03*
X61713Y37697D02*
D03*
X65650Y29823D02*
D03*
X61713Y21949D02*
D03*
Y6201D02*
D03*
X53839Y163681D02*
D03*
X57776Y140059D02*
D03*
X53839Y100689D02*
D03*
X57776Y92815D02*
D03*
X53839Y84941D02*
D03*
X57776Y77067D02*
D03*
X53839Y69193D02*
D03*
X57776Y61319D02*
D03*
X53839Y53445D02*
D03*
X57776Y45571D02*
D03*
X53839Y37697D02*
D03*
X57776Y29823D02*
D03*
X53839Y21949D02*
D03*
Y6201D02*
D03*
X45965Y163681D02*
D03*
Y100689D02*
D03*
X49902Y92815D02*
D03*
Y45571D02*
D03*
X45965Y37697D02*
D03*
Y6201D02*
D03*
X38091Y100689D02*
D03*
X42028Y92815D02*
D03*
Y61319D02*
D03*
X38091Y37697D02*
D03*
X42028Y29823D02*
D03*
X38091Y21949D02*
D03*
Y6201D02*
D03*
X30217Y100689D02*
D03*
X34154Y92815D02*
D03*
Y77067D02*
D03*
Y61319D02*
D03*
X30217Y37697D02*
D03*
X34154Y29823D02*
D03*
X30217Y21949D02*
D03*
Y6201D02*
D03*
X22343Y116437D02*
D03*
Y100689D02*
D03*
X26280Y61319D02*
D03*
X22343Y37697D02*
D03*
X26280Y29823D02*
D03*
X22343Y21949D02*
D03*
Y6201D02*
D03*
X18406Y124311D02*
D03*
Y108563D02*
D03*
Y61319D02*
D03*
X14469Y53445D02*
D03*
Y37697D02*
D03*
X18406Y14075D02*
D03*
X14469Y6201D02*
D03*
X6595Y163681D02*
D03*
Y147933D02*
D03*
Y132185D02*
D03*
Y116437D02*
D03*
Y100689D02*
D03*
Y84941D02*
D03*
Y69193D02*
D03*
Y53445D02*
D03*
X10532Y45571D02*
D03*
X6595Y37697D02*
D03*
X10532Y29823D02*
D03*
X6595Y21949D02*
D03*
X10532Y14075D02*
D03*
X6595Y6201D02*
D03*
X28248Y111122D02*
D03*
X21654Y62992D02*
D03*
X48031D02*
D03*
X75689Y135433D02*
D03*
X81890Y93701D02*
D03*
X82677Y125984D02*
D03*
X69685Y134646D02*
D03*
X90551Y94882D02*
D03*
X62598Y98032D02*
D03*
X61024Y94488D02*
D03*
X98032Y98032D02*
D03*
Y94488D02*
D03*
X87402Y94095D02*
D03*
X32677Y110925D02*
D03*
X36909Y111024D02*
D03*
X47736Y111024D02*
D03*
M02*
