G04*
G04 #@! TF.GenerationSoftware,Altium Limited,Altium Designer,18.0.7 (293)*
G04*
G04 Layer_Color=65535*
%FSLAX25Y25*%
%MOIN*%
G70*
G01*
G75*
%ADD10C,0.00600*%
%ADD11C,0.01181*%
%ADD12C,0.00787*%
%ADD13C,0.00394*%
%ADD14C,0.01000*%
%ADD15R,0.04331X0.31496*%
%ADD16R,0.04724X0.33661*%
D10*
X23545Y57874D02*
G03*
X23545Y57874I-300J0D01*
G01*
X25296Y42225D02*
X43996D01*
Y43266D01*
X25296Y60925D02*
X43996D01*
X25296Y59884D02*
Y60925D01*
Y42225D02*
Y43266D01*
X43996Y59884D02*
Y60925D01*
D11*
X23819Y102500D02*
G03*
X23819Y102500I-394J0D01*
G01*
X51575Y34252D02*
G03*
X51575Y34252I-394J0D01*
G01*
X89370Y55709D02*
G03*
X89370Y55709I-394J0D01*
G01*
D12*
X8760Y118110D02*
X16795D01*
X8760Y102362D02*
Y118110D01*
Y102362D02*
X16795D01*
Y118110D01*
X6614Y168760D02*
X119016D01*
X6614Y130669D02*
Y168760D01*
X119016Y130669D02*
Y168760D01*
X6614Y130669D02*
X119016D01*
X20669Y100138D02*
Y121791D01*
X106496D01*
Y100138D02*
Y121791D01*
X20669Y100138D02*
X106496D01*
X62500Y45866D02*
Y51378D01*
X54626Y45866D02*
X62500D01*
X54626D02*
Y51378D01*
X62500D01*
X17717Y39862D02*
X23228D01*
X17717D02*
Y47736D01*
X23228D01*
Y39862D02*
Y47736D01*
X72047Y54134D02*
X77559D01*
Y46260D02*
Y54134D01*
X72047Y46260D02*
X77559D01*
X72047D02*
Y54134D01*
X89075Y42520D02*
Y48031D01*
X96949D01*
Y42520D02*
Y48031D01*
X89075Y42520D02*
X96949D01*
X34252Y62205D02*
Y93701D01*
Y62205D02*
X83858D01*
Y93701D01*
X34252D02*
X83858D01*
X70473Y46161D02*
Y54035D01*
X64961D02*
X70473D01*
X64961Y46161D02*
Y54035D01*
Y46161D02*
X70473D01*
X11024Y39862D02*
Y47736D01*
Y39862D02*
X16535D01*
Y47736D01*
X11024D02*
X16535D01*
X112205Y13780D02*
Y33465D01*
X105315Y6890D02*
X112205Y13780D01*
X64961Y6890D02*
X105315D01*
X105315Y40354D02*
X112205Y33465D01*
X64961Y40354D02*
X105315D01*
X64961Y6890D02*
Y40354D01*
X53150Y46161D02*
Y54035D01*
X47638D02*
X53150D01*
X47638Y46161D02*
Y54035D01*
Y46161D02*
X53150D01*
X100394Y41732D02*
X114567D01*
X100394D02*
Y50394D01*
X114567D01*
Y41732D02*
Y50394D01*
X9449Y36614D02*
X54331D01*
X9449Y7087D02*
Y36614D01*
X54331Y7087D02*
Y36614D01*
X9449Y7087D02*
X54331D01*
X17323Y87008D02*
X31496D01*
X17323D02*
Y95669D01*
X31496D01*
Y87008D02*
Y95669D01*
X17323Y76378D02*
X31496D01*
X17323D02*
Y85039D01*
X31496D01*
Y76378D02*
Y85039D01*
X17323Y65748D02*
X31496D01*
X17323D02*
Y74410D01*
X31496D01*
Y65748D02*
Y74410D01*
X86024Y52559D02*
Y93209D01*
X86122Y93307D01*
X115551D01*
X86024Y52559D02*
X115551D01*
Y93307D01*
D13*
X11811Y124803D02*
X12861D01*
X12336D01*
Y127952D01*
X11811Y127427D01*
X13385Y170866D02*
Y174015D01*
X11811Y172440D01*
X13910D01*
X113123Y125591D02*
X111024D01*
X113123Y127690D01*
Y128214D01*
X112598Y128739D01*
X111548D01*
X111024Y128214D01*
X114172Y126115D02*
X114697Y125591D01*
X115746D01*
X116271Y126115D01*
Y128214D01*
X115746Y128739D01*
X114697D01*
X114172Y128214D01*
Y127690D01*
X114697Y127165D01*
X116271D01*
X111221Y173884D02*
X111745Y174408D01*
X112795D01*
X113320Y173884D01*
Y173359D01*
X112795Y172834D01*
X112270D01*
X112795D01*
X113320Y172309D01*
Y171785D01*
X112795Y171260D01*
X111745D01*
X111221Y171785D01*
X116468Y171260D02*
X114369D01*
X116468Y173359D01*
Y173884D01*
X115943Y174408D01*
X114894D01*
X114369Y173884D01*
D14*
X8529Y100392D02*
X5906D01*
Y98425D01*
X7217D01*
X5906D01*
Y96457D01*
X9841Y100392D02*
Y96457D01*
X11809D01*
X12465Y97113D01*
Y97769D01*
X11809Y98425D01*
X9841D01*
X11809D01*
X12465Y99080D01*
Y99736D01*
X11809Y100392D01*
X9841D01*
X13777Y96457D02*
X15089D01*
X14433D01*
Y100392D01*
X13777Y99736D01*
X14764Y62007D02*
Y58727D01*
X15420Y58071D01*
X16732D01*
X17388Y58727D01*
Y62007D01*
X18699Y58071D02*
X20011D01*
X19355D01*
Y62007D01*
X18699Y61351D01*
X55512Y53543D02*
Y57479D01*
X57480D01*
X58136Y56823D01*
Y55511D01*
X57480Y54855D01*
X55512D01*
X56824D02*
X58136Y53543D01*
X61415D02*
Y57479D01*
X59448Y55511D01*
X62071D01*
X15748Y50197D02*
Y54133D01*
X17716D01*
X18372Y53477D01*
Y52165D01*
X17716Y51509D01*
X15748D01*
X17060D02*
X18372Y50197D01*
X19684Y53477D02*
X20340Y54133D01*
X21652D01*
X22308Y53477D01*
Y52821D01*
X21652Y52165D01*
X20996D01*
X21652D01*
X22308Y51509D01*
Y50853D01*
X21652Y50197D01*
X20340D01*
X19684Y50853D01*
X72835Y56102D02*
Y60038D01*
X74803D01*
X75459Y59382D01*
Y58070D01*
X74803Y57414D01*
X72835D01*
X74147D02*
X75459Y56102D01*
X79394D02*
X76770D01*
X79394Y58726D01*
Y59382D01*
X78738Y60038D01*
X77426D01*
X76770Y59382D01*
X81693Y43307D02*
Y47243D01*
X83661D01*
X84317Y46587D01*
Y45275D01*
X83661Y44619D01*
X81693D01*
X83005D02*
X84317Y43307D01*
X85629D02*
X86941D01*
X86285D01*
Y47243D01*
X85629Y46587D01*
X109449Y99211D02*
Y95276D01*
X112073D01*
X113385D02*
X114697D01*
X114041D01*
Y99211D01*
X113385Y98555D01*
X56104Y10498D02*
Y9186D01*
Y9842D01*
X59383D01*
X60039Y9186D01*
Y8530D01*
X59383Y7874D01*
X56760Y11810D02*
X56104Y12466D01*
Y13778D01*
X56760Y14434D01*
X57415D01*
X58072Y13778D01*
Y13122D01*
Y13778D01*
X58728Y14434D01*
X59383D01*
X60039Y13778D01*
Y12466D01*
X59383Y11810D01*
X28214Y127952D02*
X26902D01*
X27558D01*
Y124672D01*
X26902Y124016D01*
X26247D01*
X25591Y124672D01*
X29526Y124016D02*
X30838D01*
X30182D01*
Y127952D01*
X29526Y127295D01*
X37795Y90944D02*
Y87008D01*
X39763D01*
X40419Y87664D01*
Y90288D01*
X39763Y90944D01*
X37795D01*
X41731Y87008D02*
X43043D01*
X42387D01*
Y90944D01*
X41731Y90288D01*
X66600Y59382D02*
X65944Y60038D01*
X64632D01*
X63976Y59382D01*
Y56758D01*
X64632Y56102D01*
X65944D01*
X66600Y56758D01*
X67912D02*
X68568Y56102D01*
X69880D01*
X70536Y56758D01*
Y59382D01*
X69880Y60038D01*
X68568D01*
X67912Y59382D01*
Y58726D01*
X68568Y58070D01*
X70536D01*
X49868Y42650D02*
X49212Y43306D01*
X47900D01*
X47244Y42650D01*
Y40026D01*
X47900Y39370D01*
X49212D01*
X49868Y40026D01*
X51180Y42650D02*
X51836Y43306D01*
X53148D01*
X53804Y42650D01*
Y41994D01*
X53148Y41338D01*
X53804Y40682D01*
Y40026D01*
X53148Y39370D01*
X51836D01*
X51180Y40026D01*
Y40682D01*
X51836Y41338D01*
X51180Y41994D01*
Y42650D01*
X51836Y41338D02*
X53148D01*
X9514Y53477D02*
X8858Y54133D01*
X7546D01*
X6890Y53477D01*
Y50853D01*
X7546Y50197D01*
X8858D01*
X9514Y50853D01*
X10825Y54133D02*
X13449D01*
Y53477D01*
X10825Y50853D01*
Y50197D01*
X11482Y91862D02*
X10826Y92518D01*
X9514D01*
X8858Y91862D01*
Y89239D01*
X9514Y88583D01*
X10826D01*
X11482Y89239D01*
X15418Y92518D02*
X14106Y91862D01*
X12794Y90551D01*
Y89239D01*
X13450Y88583D01*
X14762D01*
X15418Y89239D01*
Y89895D01*
X14762Y90551D01*
X12794D01*
X11482Y81036D02*
X10826Y81692D01*
X9514D01*
X8858Y81036D01*
Y78412D01*
X9514Y77756D01*
X10826D01*
X11482Y78412D01*
X15418Y81692D02*
X12794D01*
Y79724D01*
X14106Y80380D01*
X14762D01*
X15418Y79724D01*
Y78412D01*
X14762Y77756D01*
X13450D01*
X12794Y78412D01*
X11482Y70209D02*
X10826Y70865D01*
X9514D01*
X8858Y70209D01*
Y67585D01*
X9514Y66929D01*
X10826D01*
X11482Y67585D01*
X14762Y66929D02*
Y70865D01*
X12794Y68897D01*
X15418D01*
X114435Y39107D02*
X113779Y39762D01*
X112467D01*
X111811Y39107D01*
Y36483D01*
X112467Y35827D01*
X113779D01*
X114435Y36483D01*
X115747Y39107D02*
X116403Y39762D01*
X117715D01*
X118371Y39107D01*
Y38451D01*
X117715Y37795D01*
X117059D01*
X117715D01*
X118371Y37139D01*
Y36483D01*
X117715Y35827D01*
X116403D01*
X115747Y36483D01*
X62335Y32809D02*
X62991Y33465D01*
Y34777D01*
X62335Y35433D01*
X59711D01*
X59055Y34777D01*
Y33465D01*
X59711Y32809D01*
X59055Y28874D02*
Y31497D01*
X61679Y28874D01*
X62335D01*
X62991Y29530D01*
Y30841D01*
X62335Y31497D01*
D15*
X81693Y77953D02*
D03*
D16*
X67323Y23720D02*
D03*
M02*
