G04*
G04 #@! TF.GenerationSoftware,Altium Limited,Altium Designer,18.0.7 (293)*
G04*
G04 Layer_Color=8421504*
%FSLAX25Y25*%
%MOIN*%
G70*
G01*
G75*
%ADD17R,0.03937X0.03937*%
%ADD18R,0.02756X0.02756*%
%ADD19R,0.00866X0.02047*%
%ADD20R,0.04724X0.02756*%
%ADD21R,0.03937X0.02756*%
%ADD22R,0.01968X0.02362*%
%ADD23R,0.02362X0.01968*%
%ADD24R,0.09843X0.12992*%
%ADD25R,0.11614X0.06299*%
%ADD26R,0.02756X0.05118*%
%ADD27R,0.02362X0.06693*%
%ADD28R,0.03937X0.11024*%
%ADD29R,0.14173X0.11811*%
G36*
X28520Y57174D02*
X25220D01*
Y58574D01*
X28520D01*
Y57174D01*
D02*
G37*
G36*
X34252Y55625D02*
X33695Y55068D01*
X32496D01*
X31939Y55625D01*
Y57180D01*
X34252D01*
Y55625D01*
D02*
G37*
G36*
X31152D02*
X30595Y55068D01*
X29841D01*
Y57180D01*
X31152D01*
Y55625D01*
D02*
G37*
G36*
X28520Y54024D02*
X25220D01*
Y55424D01*
X28520D01*
Y54024D01*
D02*
G37*
G36*
X34252Y53724D02*
Y52525D01*
X33695Y51968D01*
X32496D01*
X31939Y52525D01*
Y53724D01*
X32496Y54281D01*
X33695D01*
X34252Y53724D01*
D02*
G37*
G36*
X31152D02*
Y52525D01*
X30595Y51968D01*
X29841D01*
Y54281D01*
X30595D01*
X31152Y53724D01*
D02*
G37*
G36*
X28520Y50875D02*
X25220D01*
Y52275D01*
X28520D01*
Y50875D01*
D02*
G37*
G36*
X34252Y50624D02*
Y49425D01*
X33695Y48869D01*
X32496D01*
X31939Y49425D01*
Y50624D01*
X32496Y51181D01*
X33695D01*
X34252Y50624D01*
D02*
G37*
G36*
X31152D02*
Y49425D01*
X30595Y48869D01*
X29841D01*
Y51181D01*
X30595D01*
X31152Y50624D01*
D02*
G37*
G36*
X28520Y47725D02*
X25220D01*
Y49125D01*
X28520D01*
Y47725D01*
D02*
G37*
G36*
X34252Y47524D02*
Y45970D01*
X31939D01*
Y47524D01*
X32496Y48081D01*
X33695D01*
X34252Y47524D01*
D02*
G37*
G36*
X31152D02*
Y45970D01*
X29841D01*
Y48081D01*
X30595D01*
X31152Y47524D01*
D02*
G37*
G36*
X28520Y44576D02*
X25220D01*
Y45976D01*
X28520D01*
Y44576D01*
D02*
G37*
G36*
X44071Y57174D02*
X40771D01*
Y58574D01*
X44071D01*
Y57174D01*
D02*
G37*
G36*
X39451Y55068D02*
X38696D01*
X38139Y55625D01*
Y57180D01*
X39451D01*
Y55068D01*
D02*
G37*
G36*
X37352Y55625D02*
X36795Y55068D01*
X35596D01*
X35039Y55625D01*
Y57180D01*
X37352D01*
Y55625D01*
D02*
G37*
G36*
X44071Y54024D02*
X40771D01*
Y55424D01*
X44071D01*
Y54024D01*
D02*
G37*
G36*
X39451Y51968D02*
X38696D01*
X38139Y52525D01*
Y53724D01*
X38696Y54281D01*
X39451D01*
Y51968D01*
D02*
G37*
G36*
X37352Y53724D02*
Y52525D01*
X36795Y51968D01*
X35596D01*
X35039Y52525D01*
Y53724D01*
X35596Y54281D01*
X36795D01*
X37352Y53724D01*
D02*
G37*
G36*
X44071Y50875D02*
X40771D01*
Y52275D01*
X44071D01*
Y50875D01*
D02*
G37*
G36*
X39451Y48869D02*
X38696D01*
X38139Y49425D01*
Y50624D01*
X38696Y51181D01*
X39451D01*
Y48869D01*
D02*
G37*
G36*
X37352Y50624D02*
Y49425D01*
X36795Y48869D01*
X35596D01*
X35039Y49425D01*
Y50624D01*
X35596Y51181D01*
X36795D01*
X37352Y50624D01*
D02*
G37*
G36*
X44071Y47725D02*
X40771D01*
Y49125D01*
X44071D01*
Y47725D01*
D02*
G37*
G36*
X39451Y45970D02*
X38139D01*
Y47524D01*
X38696Y48081D01*
X39451D01*
Y45970D01*
D02*
G37*
G36*
X37352Y47524D02*
Y45970D01*
X35039D01*
Y47524D01*
X35596Y48081D01*
X36795D01*
X37352Y47524D01*
D02*
G37*
G36*
X44071Y44576D02*
X40771D01*
Y45976D01*
X44071D01*
Y44576D01*
D02*
G37*
D17*
X12795Y106299D02*
D03*
Y114173D02*
D03*
D18*
X27362Y106535D02*
D03*
X99803D02*
D03*
D19*
X68307Y106496D02*
D03*
X70669D02*
D03*
X75394D02*
D03*
X73032D02*
D03*
X82480D02*
D03*
X84842D02*
D03*
X80118D02*
D03*
X77756D02*
D03*
X91929D02*
D03*
X94291D02*
D03*
X89567D02*
D03*
X87205D02*
D03*
X65945D02*
D03*
X32874D02*
D03*
X54134D02*
D03*
X56496D02*
D03*
X61221D02*
D03*
X58858D02*
D03*
X44685D02*
D03*
X47047D02*
D03*
X51772D02*
D03*
X49409D02*
D03*
X39961D02*
D03*
X42323D02*
D03*
X37598D02*
D03*
X35236D02*
D03*
X34055Y115827D02*
D03*
X36417D02*
D03*
X41142D02*
D03*
X38780D02*
D03*
X48228D02*
D03*
X50591D02*
D03*
X45866D02*
D03*
X43504D02*
D03*
X57677D02*
D03*
X60039D02*
D03*
X55315D02*
D03*
X52953D02*
D03*
X86024D02*
D03*
X88386D02*
D03*
X93110D02*
D03*
X90748D02*
D03*
X76575D02*
D03*
X78937D02*
D03*
X83661D02*
D03*
X81299D02*
D03*
X71850D02*
D03*
X74213D02*
D03*
X69488D02*
D03*
X67126D02*
D03*
D20*
X28346Y115591D02*
D03*
X98819D02*
D03*
D21*
X63583D02*
D03*
D22*
X57087Y48622D02*
D03*
X60039D02*
D03*
X94488Y45276D02*
D03*
X91535D02*
D03*
D23*
X20472D02*
D03*
Y42323D02*
D03*
X74803Y48720D02*
D03*
Y51673D02*
D03*
X67716Y48622D02*
D03*
Y51575D02*
D03*
X13780Y45276D02*
D03*
Y42323D02*
D03*
X50394Y48622D02*
D03*
Y51575D02*
D03*
D24*
X43504Y77953D02*
D03*
X70669D02*
D03*
D25*
X77461Y23622D02*
D03*
X103642D02*
D03*
D26*
X111221Y46063D02*
D03*
X103740D02*
D03*
X28150Y91339D02*
D03*
X20669D02*
D03*
X28150Y80709D02*
D03*
X20669D02*
D03*
X28150Y70079D02*
D03*
X20669D02*
D03*
D27*
X34350Y13091D02*
D03*
X29429D02*
D03*
X39272D02*
D03*
X24508D02*
D03*
D28*
X17224Y26280D02*
D03*
X46555D02*
D03*
D29*
X100787Y84646D02*
D03*
Y61811D02*
D03*
M02*
