M48
;Layer_Color=9474304
;FILE_FORMAT=2:5
INCH,LZ
;TYPE=PLATED
T1F00S00C0.00984
T2F00S00C0.04500
%
T01
X0006595Y0006201
X0014469
X0022343
X0030217
X0038091
X0045965
X0053839
X0061713
X0069587
X0077461
X0085335
X0093209
X0101083
X0108957
X0116831
X0120768Y0014075
X0112894
X0116831Y0021949
X0120768Y0029823
X0112894
X0116831Y0037697
X0108957
Y0053445
X0116831
X0120768Y0061319
X0112894
X0116831Y0069193
X0120768Y0077067
X0112894
X0116831Y0084941
X0120768Y0092815
Y0108563
X010502
X0101083Y0100689
X0098032Y0098032
Y0094488
X0090551Y0094882
X0087402Y0094095
X008189Y0093701
X0073524Y0092815
X0077461Y0084941
Y0069193
X0085335
X0089272Y0077067
Y0061319
X0081398
X0073524
X006565
X0057776
X0048031Y0062992
X0042028Y0061319
X0034154
X002628
X0021654Y0062992
X0018406Y0061319
X0014469Y0053445
X0006595
X0010532Y0045571
X0014469Y0037697
X0022343
X0030217
X0038091
X0045965
X0053839
X0061713
X0069587
X0077461
X0085335
X0093209
X0097146Y0029823
X0089272
X0081398
X0073524
X006565
X0057776
X0061713Y0021949
X0053839
X0038091
X0030217
X0022343
X002628Y0029823
X0034154
X0042028
X0049902Y0045571
X0057776
X006565
X0061713Y0053445
X0053839
Y0069193
X0057776Y0077067
X0061713Y0084941
X0053839
X0057776Y0092815
X0061024Y0094488
X0062598Y0098032
X0053839Y0100689
X0045965
X0038091
X0030217
X0022343
X0018406Y0108563
X0022343Y0116437
X0028248Y0111122
X0032677Y0110925
X0036909Y0111024
X0047736Y0111024
X0049902Y0092815
X0042028
X0034154
Y0077067
X0006595Y0084941
Y0100689
Y0116437
Y0069193
Y0037697
X0010532Y0029823
X0006595Y0021949
X0010532Y0014075
X0018406
X0093209Y0021949
Y0053445
X0085335
X0069587Y0069193
X0120768Y0045571
Y0124311
Y0140059
Y0155807
X0108957Y0147933
X0101083Y0132185
X0093209
X0097146Y0124311
X010502
X0082677Y0125984
X0075689Y0135433
X0069685Y0134646
X006565Y0140059
X0057776
X006565Y0124311
X0018406
X0006595Y0132185
Y0147933
Y0163681
X0045965
X0053839
T02
X0012677Y013685
X0021181
X0029685
Y0145354
X0021181
Y0153858
X0029685
Y0162362
X0021181
X0012677
Y0153858
Y0145354
X0038189
Y013685
Y0153858
Y0162362
X0087795
X0096299
X0104803
Y0153858
X0096299
X0087795
Y0145354
Y013685
X0096299
X0104803
X0113307
Y0145354
Y0153858
Y0162362
X0104803Y0145354
X0096299
M30
