M48
;Layer_Color=9474304
;FILE_FORMAT=2:5
INCH,LZ
;TYPE=PLATED
T1F00S00C0.00984
T2F00S00C0.04500
%
T01
X000876Y0052658
X0008858Y005689
X000876Y0061221
X0008563Y0065256
X0012303Y0054232
X001122Y0050197
X0015748Y0052165
X001998Y0052067
X0021654Y0062992
X0048031
X0061024Y0094488
X0062598Y0098032
X008189Y0093701
X0087402Y0094095
X0090551Y0094882
X0098032Y0094488
Y0098032
X0047736Y0111024
X0036909Y0111024
X0032677Y0110925
X0028248Y0111122
X0069685Y0134646
X0075689Y0135433
X0082677Y0125984
T02
X0012677Y013685
X0021181
X0029685
Y0145354
X0021181
Y0153858
X0029685
Y0162362
X0021181
X0012677
Y0153858
Y0145354
X0038189
Y013685
Y0153858
Y0162362
X0087795
X0096299
X0104803
Y0153858
X0096299
X0087795
Y0145354
Y013685
X0096299
X0104803
X0113307
Y0145354
Y0153858
Y0162362
X0104803Y0145354
X0096299
M30
