G04*
G04 #@! TF.GenerationSoftware,Altium Limited,Altium Designer,18.0.7 (293)*
G04*
G04 Layer_Color=32896*
%FSLAX25Y25*%
%MOIN*%
G70*
G01*
G75*
%ADD12C,0.00787*%
%ADD13C,0.00394*%
%ADD14C,0.01000*%
%ADD62R,0.13780X0.02697*%
D12*
X10827Y25098D02*
Y56595D01*
X24606D01*
Y25098D02*
Y56595D01*
X10827Y25098D02*
X24606D01*
X6614Y130669D02*
X119016D01*
Y168760D01*
X6614Y130669D02*
Y168760D01*
X119016D01*
X31201Y65354D02*
X39075D01*
X31201D02*
Y70866D01*
X39075D01*
Y65354D02*
Y70866D01*
D13*
X116142Y173884D02*
X115617Y174408D01*
X114567D01*
X114043Y173884D01*
Y173359D01*
X114567Y172834D01*
X115092D01*
X114567D01*
X114043Y172309D01*
Y171785D01*
X114567Y171260D01*
X115617D01*
X116142Y171785D01*
X110894Y171260D02*
X112993D01*
X110894Y173359D01*
Y173884D01*
X111419Y174408D01*
X112468D01*
X112993Y173884D01*
X114043Y125591D02*
X116142D01*
X114043Y127690D01*
Y128214D01*
X114567Y128739D01*
X115617D01*
X116142Y128214D01*
X112993Y126115D02*
X112468Y125591D01*
X111419D01*
X110894Y126115D01*
Y128214D01*
X111419Y128739D01*
X112468D01*
X112993Y128214D01*
Y127690D01*
X112468Y127165D01*
X110894D01*
X12205Y170866D02*
Y174015D01*
X13780Y172440D01*
X11681D01*
X12677Y124803D02*
X11628D01*
X12152D01*
Y127952D01*
X12677Y127427D01*
X121063Y11613D02*
X117914D01*
X119489D01*
Y6890D01*
X116340Y11613D02*
Y6890D01*
Y9251D01*
X115553Y10038D01*
X113979D01*
X113191Y9251D01*
Y6890D01*
X111617D02*
Y11613D01*
X109256D01*
X108469Y10825D01*
Y9251D01*
X109256Y8464D01*
X111617D01*
X110043D02*
X108469Y6890D01*
X103746Y11613D02*
X106894D01*
Y9251D01*
X105320D01*
X106894D01*
Y6890D01*
X102172D02*
Y11613D01*
X100597Y10038D01*
X99023Y11613D01*
Y6890D01*
X96661D02*
X95087D01*
X94300Y7677D01*
Y9251D01*
X95087Y10038D01*
X96661D01*
X97449Y9251D01*
Y7677D01*
X96661Y6890D01*
X89577Y11613D02*
Y6890D01*
X91939D01*
X92726Y7677D01*
Y9251D01*
X91939Y10038D01*
X89577D01*
X83280D02*
X81706Y6890D01*
X80131Y10038D01*
X78557Y10825D02*
X77770Y11613D01*
X76196D01*
X75409Y10825D01*
Y7677D01*
X76196Y6890D01*
X77770D01*
X78557Y7677D01*
Y10825D01*
X73834Y6890D02*
Y7677D01*
X73047D01*
Y6890D01*
X73834D01*
X69898Y10825D02*
X69111Y11613D01*
X67537D01*
X66750Y10825D01*
Y7677D01*
X67537Y6890D01*
X69111D01*
X69898Y7677D01*
Y10825D01*
D14*
X23985Y66012D02*
Y60014D01*
X20986D01*
X19986Y61014D01*
Y65013D01*
X20986Y66012D01*
X23985D01*
X13988Y60014D02*
X17987D01*
X13988Y64013D01*
Y65013D01*
X14988Y66012D01*
X16987D01*
X17987Y65013D01*
X60765Y150683D02*
X62764D01*
X61765D01*
Y145685D01*
X62764Y144685D01*
X63764D01*
X64764Y145685D01*
X54767Y144685D02*
X58766D01*
X54767Y148684D01*
Y149683D01*
X55767Y150683D01*
X57766D01*
X58766Y149683D01*
X34487Y79227D02*
X35487Y80226D01*
X37486D01*
X38486Y79227D01*
Y75228D01*
X37486Y74228D01*
X35487D01*
X34487Y75228D01*
X32488Y74228D02*
X30488D01*
X31488D01*
Y80226D01*
X32488Y79227D01*
D62*
X17717Y55187D02*
D03*
M02*
